<?xml version="1.0" encoding="UTF-8" standalone="no"?>
<!-- Generator: Avocode 2.6.0 - http://avocode.com -->

<svg
   xmlns:dc="http://purl.org/dc/elements/1.1/"
   xmlns:cc="http://creativecommons.org/ns#"
   xmlns:rdf="http://www.w3.org/1999/02/22-rdf-syntax-ns#"
   xmlns:svg="http://www.w3.org/2000/svg"
   xmlns="http://www.w3.org/2000/svg"
   xmlns:sodipodi="http://sodipodi.sourceforge.net/DTD/sodipodi-0.dtd"
   xmlns:inkscape="http://www.inkscape.org/namespaces/inkscape"
   height="50"
   width="50"
   viewBox="0 0 50 50"
   id="svg9206"
   version="1.1"
   inkscape:version="0.91 r13725"
   sodipodi:docname="aim.svg">
  <metadata
     id="metadata9224">
    <rdf:RDF>
      <cc:Work
         rdf:about="">
        <dc:format>image/svg+xml</dc:format>
        <dc:type
           rdf:resource="http://purl.org/dc/dcmitype/StillImage" />
        <dc:title></dc:title>
      </cc:Work>
    </rdf:RDF>
  </metadata>
  <defs
     id="defs9222" />
  <sodipodi:namedview
     pagecolor="#ffffff"
     bordercolor="#666666"
     borderopacity="1"
     objecttolerance="10"
     gridtolerance="10"
     guidetolerance="10"
     inkscape:pageopacity="0"
     inkscape:pageshadow="2"
     inkscape:window-width="1274"
     inkscape:window-height="745"
     id="namedview9220"
     showgrid="false"
     inkscape:zoom="9.0769231"
     inkscape:cx="13"
     inkscape:cy="23.938398"
     inkscape:window-x="-8"
     inkscape:window-y="-8"
     inkscape:window-maximized="1"
     inkscape:current-layer="svg9206" />
  <path
     style="color:#000000;font-style:normal;font-variant:normal;font-weight:normal;font-stretch:normal;font-size:medium;line-height:normal;font-family:sans-serif;text-indent:0;text-align:start;text-decoration:none;text-decoration-line:none;text-decoration-style:solid;text-decoration-color:#000000;letter-spacing:normal;word-spacing:normal;text-transform:none;direction:ltr;block-progression:tb;writing-mode:lr-tb;baseline-shift:baseline;text-anchor:start;white-space:normal;clip-rule:nonzero;display:inline;overflow:visible;visibility:visible;opacity:1;isolation:auto;mix-blend-mode:normal;color-interpolation:sRGB;color-interpolation-filters:linearRGB;solid-color:#000000;solid-opacity:1;fill:#000000;fill-opacity:1;fill-rule:evenodd;stroke:none;stroke-width:1.60000002;stroke-linecap:butt;stroke-linejoin:miter;stroke-miterlimit:4;stroke-dasharray:none;stroke-dashoffset:0;stroke-opacity:1;color-rendering:auto;image-rendering:auto;shape-rendering:auto;text-rendering:auto;enable-background:accumulate"
     d="m 23.237287,0.53389867 0,4.23304993 C 13.537883,5.6643543 5.791474,13.410763 4.8940678,23.110169 l -4.23305076,0 0,3.762713 4.23305076,0 C 5.791474,36.572286 13.537883,44.318695 23.237287,45.216101 l 0,4.233053 3.762714,0 0,-4.233053 C 36.699404,44.318695 44.445814,36.572286 45.34322,26.872882 l 4.233052,0 0,-3.762713 -4.233052,0 C 44.445814,13.410763 36.699404,5.6643543 27.000001,4.7669486 l 0,-4.23304993 -3.762714,0 z m 0,7.25718243 0,7.7936639 3.762714,0 0,-7.7936639 c 8.06335,0.8695994 14.449487,7.2557369 15.319086,15.3190879 l -7.793664,0 0,3.762713 7.793664,0 c -0.869599,8.063351 -7.255736,14.449487 -15.319086,15.319087 l 0,-7.793665 -3.762714,0 0,7.793665 C 15.173937,41.322369 8.7878004,34.936233 7.9182005,26.872882 l 7.7936635,0 0,-3.762713 -7.7936635,0 C 8.7878004,15.046818 15.173937,8.6606805 23.237287,7.7910811 Z m 1.881358,13.4377309 c -2.069492,0 -3.762714,1.693223 -3.762714,3.762714 0,2.069489 1.693222,3.762711 3.762714,3.762711 2.069491,0 3.762711,-1.693222 3.762711,-3.762711 0,-2.069491 -1.69322,-3.762714 -3.762711,-3.762714 z"
     id="path9208"
     inkscape:connector-curvature="0" />
</svg>
