<?xml version="1.0" encoding="UTF-8" standalone="no"?>
<svg
   xmlns:dc="http://purl.org/dc/elements/1.1/"
   xmlns:cc="http://creativecommons.org/ns#"
   xmlns:rdf="http://www.w3.org/1999/02/22-rdf-syntax-ns#"
   xmlns:svg="http://www.w3.org/2000/svg"
   xmlns="http://www.w3.org/2000/svg"
   version="1.1"
   id="svg4136"
   viewBox="0 0 30 30"
   width="30"
   height="30">
  <metadata
     id="metadata4156">
    <rdf:RDF>
      <cc:Work
         rdf:about="">
        <dc:format>image/svg+xml</dc:format>
        <dc:type
           rdf:resource="http://purl.org/dc/dcmitype/StillImage" />
        <dc:title></dc:title>
      </cc:Work>
    </rdf:RDF>
  </metadata>
  <defs
     id="defs4154" />
  <path
     id="path4138"
     d="m 2.4286025,3.5659722 c -1.0838097,0 -2.00000006,0.906901 -2.00000006,1.9902344 l 0,15.9999994 c 0,1.095455 0.91666656,1.990235 2.00000006,1.990235 l 2.1074219,0 c 0.4425591,1.72638 2.0049231,3.019531 3.8632812,3.019531 1.8583584,0 3.4207224,-1.293151 3.8632814,-3.019531 l 5.273438,0 c 0.442559,1.72638 2.004923,3.019531 3.863281,3.019531 1.858358,0 3.420722,-1.293151 3.863281,-3.019531 l 2.175781,0 c 1.083335,0 2,-0.89478 2,-1.990235 l 0,-7.980468 c 0,-0.873335 -0.271906,-1.693217 -0.818359,-2.400391 l -4.818359,-6.4062498 -0.002,-0.00195 C 23.209057,3.974767 22.396795,3.5659722 21.399306,3.5659722 l -18.9707035,0 z m 0,2 5.9707031,0 0,5.9999998 -5.9707031,0 0,-5.9999998 z m 7.9707035,0 6,0 0,5.9999998 -6,0 0,-5.9999998 z m 8,0 3,0 c 0.101515,0 0.747708,0.3304166 0.796875,0.3964844 l 0.002,0.00195 4.214797,5.6015654 -8.013672,0 0,-5.9999998 z m -15.9707035,7.9999998 25.0078125,0 c 3.5e-5,0.0017 0.002,0.0081 0.002,0.0098 l -4.7e-5,1.9902 -3.039062,0 0,2 3.039062,0 0,3.980469 -2.189453,0 c -0.456555,-1.70612 -2.005714,-2.980469 -3.849609,-2.980469 -1.843895,0 -3.393054,1.274349 -3.849609,2.980469 l -5.300782,0 C 11.79236,19.840321 10.2432,18.565972 8.3993056,18.565972 c -1.8438944,0 -3.3930536,1.274349 -3.8496094,2.980469 l -2.1210937,0 0,-7.980469 z m 5.9707031,7 c 1.1218474,0 2.0000004,0.878153 2.0000004,2 0,1.121847 -0.878153,2 -2.0000004,2 -1.1218474,0 -2,-0.878153 -2,-2 0,-1.121847 0.8781526,-2 2,-2 z m 13.0000004,0 c 1.121847,0 2,0.878153 2,2 0,1.121847 -0.878153,2 -2,2 -1.121847,0 -2,-0.878153 -2,-2 0,-1.121847 0.878153,-2 2,-2 z"
     style="fill:#000000;fill-opacity:1;stroke:none" />
</svg>
