<?xml version="1.0" encoding="UTF-8" standalone="no"?>
<svg
   xmlns:dc="http://purl.org/dc/elements/1.1/"
   xmlns:cc="http://creativecommons.org/ns#"
   xmlns:rdf="http://www.w3.org/1999/02/22-rdf-syntax-ns#"
   xmlns:svg="http://www.w3.org/2000/svg"
   xmlns="http://www.w3.org/2000/svg"
   version="1.1"
   id="svg5880"
   viewBox="0 0 35 35"
   width="35"
   height="35">
  <metadata
     id="metadata5896">
    <rdf:RDF>
      <cc:Work
         rdf:about="">
        <dc:format>image/svg+xml</dc:format>
        <dc:type
           rdf:resource="http://purl.org/dc/dcmitype/StillImage" />
        <dc:title></dc:title>
      </cc:Work>
    </rdf:RDF>
  </metadata>
  <defs
     id="defs5894" />
  <path
     id="path5882"
     d="m 10.512376,8.3578946 c -1.0242853,0 -1.856449,0.495225 -2.3749993,1.353516 l -0.00195,0.0039 -2.1425813,3.6328124 -3.4296875,0 c -1.0838095,0 -2.00000001,0.906901 -2.00000001,1.990235 l 0,8.019537 c 0,1.08321 0.88265861,2 1.99023441,2 l 3.5683594,0 c 0.6958717,1.188508 1.9734797,2 3.4414062,2 1.4679261,0 2.7455351,-0.811492 3.4414061,-2 l 9.117188,0 c 0.695871,1.188508 1.973479,2 3.441406,2 1.467927,0 2.745535,-0.811492 3.441406,-2 l 3.597656,0 c 1.095557,0 1.990235,-0.904545 1.990235,-2 l 0,-6 c 0,-1.08236 -0.690586,-1.956032 -1.744141,-2.210938 l -6.734375,-1.634765 -4.126953,-4.1640634 -0.0059,-0.0059 C 21.32702,8.7049346 20.520568,8.3578946 19.582689,8.3578946 l -9.070313,0 z m 0,2.0000004 3.964844,0 0,3.044922 -6.1972652,0 1.5683593,-2.658203 0.00195,-0.002 c 0.064318,-0.10258 0.5667299,-0.384719 0.6621119,-0.384719 z m 5.964844,0 3.105469,0 c 0.162121,0 0.876061,0.293351 1.001953,0.416016 l 2.605469,2.628906 -6.712891,0 0,-3.044922 z m -13.9140621,4.990234 4.1503906,0 18.8164065,0.08008 6.847656,1.66211 0.002,0 c 0.02475,0.006 0.212844,0.250911 0.212844,0.267578 l 0,6 -3.029297,-2e-6 c 0,-2.198153 -1.801847,-4 -4,-4 -2.198153,0 -4,1.801847 -4,4 l -8,0 c 0,-2.198153 -1.801847,-4 -4.0000001,-4 -2.1981526,0 -4,1.801847 -4,4 l -3,0 0,-8.009766 z m 7,6.009766 c 1.1218471,0 2.0000001,0.878153 2.0000001,2 0,1.121847 -0.878153,2 -2.0000001,2 -1.1218474,0 -2,-0.878153 -2,-2 0,-1.121847 0.8781526,-2 2,-2 z m 16.0000001,0 c 1.121847,0 2,0.878153 2,2 0,1.121847 -0.878153,2 -2,2 -1.121847,0 -2,-0.878153 -2,-2 0,-1.121847 0.878153,-2 2,-2 z"
     style="color:#000000;font-style:normal;font-variant:normal;font-weight:normal;font-stretch:normal;font-size:medium;line-height:normal;font-family:sans-serif;text-indent:0;text-align:start;text-decoration:none;text-decoration-line:none;text-decoration-style:solid;text-decoration-color:#000000;letter-spacing:normal;word-spacing:normal;text-transform:none;direction:ltr;block-progression:tb;writing-mode:lr-tb;baseline-shift:baseline;text-anchor:start;white-space:normal;clip-rule:nonzero;display:inline;overflow:visible;visibility:visible;opacity:1;isolation:auto;mix-blend-mode:normal;color-interpolation:sRGB;color-interpolation-filters:linearRGB;solid-color:#000000;solid-opacity:1;fill:#000000;fill-opacity:1;fill-rule:evenodd;stroke:none;stroke-width:2;stroke-linecap:butt;stroke-linejoin:miter;stroke-miterlimit:4;stroke-dasharray:none;stroke-dashoffset:0;stroke-opacity:1;color-rendering:auto;image-rendering:auto;shape-rendering:auto;text-rendering:auto;enable-background:accumulate" />
</svg>
