<?xml version="1.0" encoding="UTF-8" standalone="no"?>
<svg
   xmlns:dc="http://purl.org/dc/elements/1.1/"
   xmlns:cc="http://creativecommons.org/ns#"
   xmlns:rdf="http://www.w3.org/1999/02/22-rdf-syntax-ns#"
   xmlns:svg="http://www.w3.org/2000/svg"
   xmlns="http://www.w3.org/2000/svg"
   version="1.1"
   id="svg4148"
   viewBox="0 0 32 32"
   width="32"
   height="32">
  <metadata
     id="metadata4190">
    <rdf:RDF>
      <cc:Work
         rdf:about="">
        <dc:format>image/svg+xml</dc:format>
        <dc:type
           rdf:resource="http://purl.org/dc/dcmitype/StillImage" />
        <dc:title></dc:title>
      </cc:Work>
    </rdf:RDF>
  </metadata>
  <defs
     id="defs4188" />
  <path
     id="path4174"
     d="m 18.305009,4.4831502 c -0.697206,0 -1.365882,0.1927252 -1.938614,0.514365 -0.572733,0.3216396 -1.074118,0.772961 -1.316551,1.4186798 L 14.567047,7.6770382 C 14.296641,7.6171991 14.019637,7.5767649 13.735151,7.5767649 l -7.709899,0 c -0.6972063,0 -1.3658837,0.1927253 -1.9386154,0.514365 C 3.5139039,8.4127696 3.0125195,8.864091 2.7700857,9.5098109 l -0.8671773,2.2635761 -0.00191,0.0019 c -0.1129003,0.30068 -0.1301419,0.629619 -0.076127,0.943312 -0.85989672,0.49383 -1.45210531,1.410697 -1.45210531,2.464122 l 0,4.753694 c 0,1.558636 1.28298311,2.852216 2.85221651,2.852216 0,0.532414 0.4278324,0.950739 0.9507389,0.950739 l 0.9507387,0 c 0.5324137,0 0.9507388,-0.427832 0.9507388,-0.950739 l 0.9024594,0 0,1.7325 c 0,1.558635 1.282983,2.852215 2.8522167,2.852215 0,0.532414 0.4278326,0.950739 0.9507386,0.950739 l 0.950739,0 c 0.532414,0 0.950739,-0.427832 0.950739,-0.950739 l 7.605911,0 c 0,0.532414 0.427832,0.950739 0.950739,0.950739 l 0.950738,0 c 0.532414,0 0.950738,-0.427832 0.950738,-0.950739 1.563524,0 2.852217,-1.288693 2.852217,-2.852215 l 0,-4.668276 c 0.07758,0.451496 0.451559,0.7929 0.919171,0.7929 l 0.950739,0 c 0.532414,0 0.950739,-0.427833 0.950739,-0.950739 1.563524,0 2.852217,-1.288693 2.852217,-2.852216 l 0,-4.753694 c 0,-1.051441 -0.590389,-1.971521 -1.452106,-2.4659797 0.0536,-0.3131495 0.03656,-0.6413141 -0.07614,-0.9414538 l -0.0019,-0.00181 -0.867178,-2.263576 C 29.027635,5.77052 28.526162,5.3191549 27.95343,4.9975152 27.3807,4.6758756 26.712022,4.4831503 26.014815,4.4831503 l -7.709898,0 z m 0,1.6693632 7.709898,0 c 0.375178,0 0.798235,0.1192372 1.121574,0.3008204 0.32334,0.1815834 0.522673,0.4233952 0.570072,0.5496458 l 0,0.0037 0.856038,2.2301509 -11.709686,0 C 16.664552,8.8870055 16.405435,8.5951106 16.093428,8.3622327 l 0.519936,-1.3555453 0,-0.0037 c 0.0474,-0.1262546 0.246732,-0.3680664 0.570072,-0.5496498 0.323339,-0.1815834 0.746395,-0.3008204 1.121573,-0.3008204 z M 6.025252,9.246129 l 7.709899,0 c 0.375178,0 0.798234,0.119236 1.121574,0.3008194 0.323339,0.1815835 0.522672,0.4233963 0.570071,0.5496456 l 0,0.0037 0.791045,2.061173 -3.585696,0 c -0.38253,0 -0.754358,0.06349 -1.108576,0.168979 l -8.0459995,0 0.8560357,-2.230152 0,-0.0037 C 4.381009,9.9703437 4.5803381,9.7285328 4.9036778,9.5469484 5.2270173,9.365365 5.6500732,9.246129 6.025252,9.246129 Z m 22.563335,1.892193 0.226543,0 c 0.541407,0 0.950738,0.417749 0.950738,0.950739 l 0,4.753694 c 0,0.547117 -0.403621,0.950739 -0.950738,0.950739 l -0.950739,0 -0.950738,0 -1.74364,0 c -0.18688,-0.189868 -0.394875,-0.358522 -0.627636,-0.492081 0.0536,-0.31315 0.03656,-0.641314 -0.07614,-0.941455 l -0.0019,-0.0019 -0.867158,-2.263559 C 23.354816,13.44881 22.853389,12.99749 22.280657,12.675849 21.707926,12.35421 21.03925,12.161484 20.342043,12.161484 l -2.399131,0 c -0.01563,-0.130954 -0.03686,-0.261845 -0.08356,-0.386237 l -0.0019,-0.0019 -0.219115,-0.570072 10.328142,0 c 0.214792,0 0.421235,-0.02594 0.622066,-0.06499 z M 26.438283,13.0398 c -0.789114,0 -1.426108,0.636995 -1.426108,1.426109 0,0.789113 0.636994,1.426107 1.426108,1.426107 0.789114,0 1.426108,-0.636994 1.426108,-1.426107 0,-0.789114 -0.636994,-1.426109 -1.426108,-1.426109 z m -13.806138,0.791045 7.709898,0 c 0.375178,0 0.798234,0.119242 1.121573,0.300819 0.32334,0.181584 0.522672,0.423396 0.570072,0.549646 l 0,0.0037 0.856037,2.230151 -12.805263,0 0.856037,-2.230151 0,-0.0037 c 0.0474,-0.12625 0.246731,-0.368062 0.570071,-0.549646 0.323339,-0.181582 0.746395,-0.300819 1.121575,-0.300819 z m -9.4071155,0.401093 0.226543,0 c 0.2008293,0.03905 0.4072747,0.06499 0.6220656,0.06499 l 5.2253498,0 -0.7891874,2.061171 -0.00191,0.0019 c -0.1129011,0.30066 -0.1301442,0.629555 -0.076131,0.943248 -0.8598976,0.49383 -1.4521042,1.410696 -1.4521042,2.464121 l 0,1.119718 -3.7546758,0 c -0.5414078,0 -0.9507388,-0.417748 -0.9507388,-0.950739 l 0,-4.753693 c 0,-0.547118 0.4036209,-0.950739 0.9507388,-0.950739 z m 2.376847,1.901477 c -0.7891132,0 -1.4261082,0.636994 -1.4261082,1.426108 0,0.789114 0.636995,1.426108 1.4261082,1.426108 0.7891133,0 1.4261082,-0.636994 1.4261082,-1.426108 0,-0.789114 -0.6369949,-1.426108 -1.4261082,-1.426108 z m 4.2300455,2.683238 0.226543,0 c 0.200829,0.03905 0.407275,0.06499 0.622065,0.06499 l 11.613126,0 c 0.214791,0 0.421236,-0.02594 0.622065,-0.06499 l 0.226543,0 c 0.541407,0 0.95074,0.417749 0.95074,0.950739 l 0,4.753693 c 0,0.547118 -0.403622,0.950739 -0.95074,0.950739 l -0.950738,0 -0.950739,0 -11.408865,0 c -0.541408,0 -0.9507391,-0.417748 -0.9507391,-0.950739 l 0,-4.753693 c 0,-0.547118 0.403621,-0.950739 0.9507391,-0.950739 z m 2.376847,1.901478 c -0.789113,0 -1.426108,0.636994 -1.426108,1.426108 0,0.789112 0.636995,1.426107 1.426108,1.426107 0.789113,0 1.426109,-0.636995 1.426109,-1.426107 0,-0.789114 -0.636996,-1.426108 -1.426109,-1.426108 z m 8.556648,0 c -0.789112,0 -1.426107,0.636994 -1.426107,1.426108 0,0.789112 0.636995,1.426107 1.426107,1.426107 0.789114,0 1.426109,-0.636995 1.426109,-1.426107 0,-0.789114 -0.636995,-1.426108 -1.426109,-1.426108 z"
     style="fill:#000000;fill-opacity:1" />
</svg>
