<?xml version="1.0" encoding="UTF-8" standalone="no"?>
<!-- Generator: Avocode 2.6.0 - http://avocode.com -->

<svg
   xmlns:dc="http://purl.org/dc/elements/1.1/"
   xmlns:cc="http://creativecommons.org/ns#"
   xmlns:rdf="http://www.w3.org/1999/02/22-rdf-syntax-ns#"
   xmlns:svg="http://www.w3.org/2000/svg"
   xmlns="http://www.w3.org/2000/svg"
   xmlns:sodipodi="http://sodipodi.sourceforge.net/DTD/sodipodi-0.dtd"
   xmlns:inkscape="http://www.inkscape.org/namespaces/inkscape"
   height="24"
   width="24"
   viewBox="0 0 24 24"
   id="svg4708"
   version="1.1"
   inkscape:version="0.91 r13725"
   sodipodi:docname="cart.svg">
  <metadata
     id="metadata4720">
    <rdf:RDF>
      <cc:Work
         rdf:about="">
        <dc:format>image/svg+xml</dc:format>
        <dc:type
           rdf:resource="http://purl.org/dc/dcmitype/StillImage" />
        <dc:title></dc:title>
      </cc:Work>
    </rdf:RDF>
  </metadata>
  <defs
     id="defs4718" />
  <sodipodi:namedview
     pagecolor="#ffffff"
     bordercolor="#666666"
     borderopacity="1"
     objecttolerance="10"
     gridtolerance="10"
     guidetolerance="10"
     inkscape:pageopacity="0"
     inkscape:pageshadow="2"
     inkscape:window-width="1230"
     inkscape:window-height="745"
     id="namedview4716"
     showgrid="false"
     inkscape:zoom="13.111111"
     inkscape:cx="10.5"
     inkscape:cy="9"
     inkscape:window-x="-8"
     inkscape:window-y="-8"
     inkscape:window-maximized="1"
     inkscape:current-layer="svg4708" />
  <path
     style="color:#000000;font-style:normal;font-variant:normal;font-weight:normal;font-stretch:normal;font-size:medium;line-height:normal;font-family:sans-serif;text-indent:0;text-align:start;text-decoration:none;text-decoration-line:none;text-decoration-style:solid;text-decoration-color:#000000;letter-spacing:normal;word-spacing:normal;text-transform:none;direction:ltr;block-progression:tb;writing-mode:lr-tb;baseline-shift:baseline;text-anchor:start;white-space:normal;clip-rule:nonzero;display:inline;overflow:visible;visibility:visible;opacity:1;isolation:auto;mix-blend-mode:normal;color-interpolation:sRGB;color-interpolation-filters:linearRGB;solid-color:#000000;solid-opacity:1;fill:#000000;fill-opacity:1;fill-rule:evenodd;stroke:none;stroke-width:1.70000005;stroke-linecap:butt;stroke-linejoin:miter;stroke-miterlimit:4;stroke-dasharray:none;stroke-dashoffset:0;stroke-opacity:1;color-rendering:auto;image-rendering:auto;shape-rendering:auto;text-rendering:auto;enable-background:accumulate"
     d="m 1.6779661,3.4808991 0,1.6992188 c 0.400861,0 2.8812025,0.011108 3.8085938,0.015625 0.046748,0.325328 0.1017773,0.7261871 0.1699218,1.2148437 0.1479199,1.0607169 0.3365395,2.4298559 0.5214844,3.7832024 0.3698899,2.706694 0.7285156,5.34961 0.7285156,5.34961 l 0.083984,0.617187 c -0.6713608,0.529314 -1.1132813,1.338085 -1.1132812,2.25 0,1.575088 1.3030387,2.869141 2.890625,2.869141 1.5813041,0 2.8906251,-1.289375 2.8906251,-2.869141 0,-0.846997 -0.379862,-1.6028 -0.96875,-2.130859 l 5.15625,0 c -0.589211,0.528812 -0.96875,1.285483 -0.96875,2.130859 0,1.575088 1.303039,2.869141 2.890625,2.869141 1.581304,0 2.890625,-1.289375 2.890625,-2.869141 0,-1.050471 -0.580315,-1.963414 -1.427735,-2.466797 l 2.501954,-8.2929675 -14.1875004,0 C 7.4778501,7.1628186 7.3997852,6.5903774 7.3420286,6.1762116 7.2678635,5.6443824 7.2035584,5.1877141 7.1545286,4.8480866 7.1054988,4.5084591 7.0818391,4.338155 7.051013,4.1840241 L 6.9162473,3.5043366 6.222888,3.5004304 c 0,0 -4.0222552,-0.019531 -4.5449219,-0.019531 z m 6.1015625,5.8691404 11.6640624,0 -1.576172,5.2304685 -9.3769529,0 C 8.4112691,13.995049 8.1827207,12.299145 7.863513,9.9633215 7.8335484,9.7440535 7.8094748,9.5687625 7.7795286,9.3500395 Z m 0.9882813,7.7812495 c 0.7186956,0 1.2910161,0.565239 1.2910161,1.279297 0,0.700234 -0.5723205,1.269531 -1.2910161,1.269531 -0.7324138,0 -1.2890624,-0.564619 -1.2890626,-1.269531 0,-0.718696 0.5566488,-1.279297 1.2890626,-1.279297 z m 9.0000001,0 c 0.718695,0 1.291015,0.565239 1.291015,1.279297 0,0.700234 -0.57232,1.269531 -1.291015,1.269531 -0.732414,0 -1.289063,-0.564619 -1.289063,-1.269531 0,-0.718696 0.556649,-1.279297 1.289063,-1.279297 z"
     id="path4710"
     inkscape:connector-curvature="0" />
</svg>
