<?xml version="1.0" encoding="UTF-8" standalone="no"?>
<!-- Generator: Avocode 2.6.0 - http://avocode.com -->

<svg
   xmlns:dc="http://purl.org/dc/elements/1.1/"
   xmlns:cc="http://creativecommons.org/ns#"
   xmlns:rdf="http://www.w3.org/1999/02/22-rdf-syntax-ns#"
   xmlns:svg="http://www.w3.org/2000/svg"
   xmlns="http://www.w3.org/2000/svg"
   xmlns:sodipodi="http://sodipodi.sourceforge.net/DTD/sodipodi-0.dtd"
   xmlns:inkscape="http://www.inkscape.org/namespaces/inkscape"
   height="25"
   width="25"
   viewBox="0 0 25 25"
   id="svg10937"
   version="1.1"
   inkscape:version="0.91 r13725"
   sodipodi:docname="cat-teapot.svg">
  <metadata
     id="metadata10951">
    <rdf:RDF>
      <cc:Work
         rdf:about="">
        <dc:format>image/svg+xml</dc:format>
        <dc:type
           rdf:resource="http://purl.org/dc/dcmitype/StillImage" />
        <dc:title></dc:title>
      </cc:Work>
    </rdf:RDF>
  </metadata>
  <defs
     id="defs10949" />
  <sodipodi:namedview
     pagecolor="#ffffff"
     bordercolor="#666666"
     borderopacity="1"
     objecttolerance="10"
     gridtolerance="10"
     guidetolerance="10"
     inkscape:pageopacity="0"
     inkscape:pageshadow="2"
     inkscape:window-width="1230"
     inkscape:window-height="745"
     id="namedview10947"
     showgrid="false"
     inkscape:zoom="16"
     inkscape:cx="12.70606"
     inkscape:cy="9.4997209"
     inkscape:window-x="-8"
     inkscape:window-y="-8"
     inkscape:window-maximized="1"
     inkscape:current-layer="svg10937" />
  <path
     d="m 18.478678,3.7712413 c -0.08731,-0.00322 -0.155123,0.00689 -0.234997,0.00985 l 0,-0.00422 -0.0605,0.00704 c -0.07952,0.00433 -0.171306,0.00166 -0.240626,0.00985 -0.109687,0.012956 -0.183966,0.030505 -0.261733,0.046437 L 3.5683644,5.414813 l 2.4766099,5.784854 -0.053472,8.511939 12.2521827,0 0,-14.4867602 c 0.162139,-0.010286 0.345509,-0.00991 0.517836,0.033772 0.20544,0.052071 0.359881,0.1336565 0.492509,0.3123905 0.132626,0.1787342 0.264546,0.4958683 0.264546,1.0975886 l 0,3.5798271 1.440937,0 0,-3.5798271 c 0,-0.8212048 -0.192347,-1.4774909 -0.547387,-1.955959 -0.355044,-0.4784714 -0.85122,-0.7386024 -1.296002,-0.8513383 -0.222393,-0.056368 -0.438265,-0.082704 -0.637446,-0.090059 z m -1.675933,1.6168323 0,12.8825924 -9.3618671,0 0.047844,-7.363693 L 7.4282134,10.769071 5.656593,6.6320071 16.802745,5.3880736 Z m -2.869209,5.1164504 0,6.484216 1.440936,0 0,-6.484216 -1.440936,0 z m -8.6582846,9.86704 0,1.440936 13.6888986,0 0,-1.440936 -13.6888986,0 z"
     id="path10939"
     style="fill:#000000;fill-opacity:1;stroke:none"
     inkscape:connector-curvature="0" />
</svg>
