<?xml version="1.0" encoding="UTF-8" standalone="no"?>
<!-- Generator: Avocode 2.6.0 - http://avocode.com -->

<svg
   xmlns:dc="http://purl.org/dc/elements/1.1/"
   xmlns:cc="http://creativecommons.org/ns#"
   xmlns:rdf="http://www.w3.org/1999/02/22-rdf-syntax-ns#"
   xmlns:svg="http://www.w3.org/2000/svg"
   xmlns="http://www.w3.org/2000/svg"
   xmlns:sodipodi="http://sodipodi.sourceforge.net/DTD/sodipodi-0.dtd"
   xmlns:inkscape="http://www.inkscape.org/namespaces/inkscape"
   height="25"
   width="25"
   viewBox="0 0 25 25"
   id="svg10380"
   version="1.1"
   inkscape:version="0.91 r13725"
   sodipodi:docname="cat-pc.svg">
  <metadata
     id="metadata10390">
    <rdf:RDF>
      <cc:Work
         rdf:about="">
        <dc:format>image/svg+xml</dc:format>
        <dc:type
           rdf:resource="http://purl.org/dc/dcmitype/StillImage" />
        <dc:title></dc:title>
      </cc:Work>
    </rdf:RDF>
  </metadata>
  <defs
     id="defs10388" />
  <sodipodi:namedview
     pagecolor="#ffffff"
     bordercolor="#666666"
     borderopacity="1"
     objecttolerance="10"
     gridtolerance="10"
     guidetolerance="10"
     inkscape:pageopacity="0"
     inkscape:pageshadow="2"
     inkscape:window-width="1230"
     inkscape:window-height="745"
     id="namedview10386"
     showgrid="false"
     inkscape:zoom="10.727273"
     inkscape:cx="14"
     inkscape:cy="11"
     inkscape:window-x="-8"
     inkscape:window-y="-8"
     inkscape:window-maximized="1"
     inkscape:current-layer="svg10380" />
  <path
     style="color:#000000;font-style:normal;font-variant:normal;font-weight:normal;font-stretch:normal;font-size:medium;line-height:normal;font-family:sans-serif;text-indent:0;text-align:start;text-decoration:none;text-decoration-line:none;text-decoration-style:solid;text-decoration-color:#000000;letter-spacing:normal;word-spacing:normal;text-transform:none;direction:ltr;block-progression:tb;writing-mode:lr-tb;baseline-shift:baseline;text-anchor:start;white-space:normal;clip-rule:nonzero;display:inline;overflow:visible;visibility:visible;opacity:1;isolation:auto;mix-blend-mode:normal;color-interpolation:sRGB;color-interpolation-filters:linearRGB;solid-color:#000000;solid-opacity:1;fill:#000000;fill-opacity:1;fill-rule:evenodd;stroke:none;stroke-width:1.88616574;stroke-linecap:butt;stroke-linejoin:miter;stroke-miterlimit:4;stroke-dasharray:none;stroke-dashoffset:0;stroke-opacity:1;color-rendering:auto;image-rendering:auto;shape-rendering:auto;text-rendering:auto;enable-background:accumulate"
     d="m 4.0677979,3.4915255 0,0.6934667 0,11.4343048 c -0.00264,0.0038 -0.006,0.0063 -0.00861,0.01005 l -0.00144,0.0015 -0.00144,0.0028 -2.1249083,3.094038 c -0.420368,0.612202 -0.5627342,1.375328 -0.1909546,1.97272 0.3717748,0.597363 1.0889138,0.844221 1.8664736,0.844221 l 18.0832574,0 c 0.773384,0 1.489663,-0.242722 1.865037,-0.838477 0.375377,-0.595756 0.236607,-1.364139 -0.188082,-1.979899 l -2.134959,-3.094039 c -0.04149,-0.06015 -0.09368,-0.103822 -0.139267,-0.157932 l 0,-11.9827985 -17.0251109,0 z m 1.3854977,1.3869335 14.2526784,0 0,9.429999 -14.2526784,0 0,-9.429999 z m 0.3531941,11.273501 13.6841223,0 c 0.103005,0 0.518689,0.225326 0.548456,0.268485 l 2.132087,3.094039 c 0.230878,0.334749 0.174391,0.42614 0.157933,0.45226 -0.01646,0.02612 -0.168974,0.167983 -0.638909,0.167983 l -18.0832565,0 c -0.4732925,0 -0.6197507,-0.141814 -0.6360367,-0.167983 -0.016287,-0.02617 -0.071172,-0.120693 0.1564967,-0.45226 l 2.120601,-3.089732 c 0.043997,-0.06298 0.4345627,-0.272792 0.5585062,-0.272792 z"
     id="path10382"
     inkscape:connector-curvature="0" />
</svg>
