<?xml version="1.0" encoding="UTF-8" standalone="no"?>
<!-- Generator: Avocode 2.6.0 - http://avocode.com -->

<svg
   xmlns:dc="http://purl.org/dc/elements/1.1/"
   xmlns:cc="http://creativecommons.org/ns#"
   xmlns:rdf="http://www.w3.org/1999/02/22-rdf-syntax-ns#"
   xmlns:svg="http://www.w3.org/2000/svg"
   xmlns="http://www.w3.org/2000/svg"
   xmlns:sodipodi="http://sodipodi.sourceforge.net/DTD/sodipodi-0.dtd"
   xmlns:inkscape="http://www.inkscape.org/namespaces/inkscape"
   height="20"
   width="20"
   viewBox="0 0 20 20"
   id="svg6937"
   version="1.1"
   inkscape:version="0.91 r13725"
   sodipodi:docname="close.svg">
  <metadata
     id="metadata6945">
    <rdf:RDF>
      <cc:Work
         rdf:about="">
        <dc:format>image/svg+xml</dc:format>
        <dc:type
           rdf:resource="http://purl.org/dc/dcmitype/StillImage" />
        <dc:title></dc:title>
      </cc:Work>
    </rdf:RDF>
  </metadata>
  <defs
     id="defs6943" />
  <sodipodi:namedview
     pagecolor="#ffffff"
     bordercolor="#666666"
     borderopacity="1"
     objecttolerance="10"
     gridtolerance="10"
     guidetolerance="10"
     inkscape:pageopacity="0"
     inkscape:pageshadow="2"
     inkscape:window-width="1230"
     inkscape:window-height="745"
     id="namedview6941"
     showgrid="false"
     inkscape:zoom="15.733333"
     inkscape:cx="7.5"
     inkscape:cy="7.5"
     inkscape:window-x="-8"
     inkscape:window-y="-8"
     inkscape:window-maximized="1"
     inkscape:current-layer="svg6937" />
  <path
     d="m 11.315932,10.211864 6.04,-6.0399996 c 0.33,-0.33 0.33,-0.88 0,-1.21 -0.34,-0.33 -0.88,-0.33 -1.21,0 l -6.04,6.04 -6.0399998,-6.04 c -0.33,-0.33 -0.88,-0.33 -1.21,0 -0.33,0.34 -0.33,0.88 0,1.21 l 6.04,6.0399996 -6.04,6.04 c -0.33,0.33 -0.33,0.88 0,1.21 0.34,0.33 0.88,0.33 1.21,0 l 6.0399998,-6.04 6.04,6.04 c 0.33,0.33 0.88,0.33 1.21,0 0.33,-0.34 0.33,-0.88 0,-1.21 l -6.04,-6.04 z m 0,0"
     id="path6939"
     style="fill:#000000;fill-opacity:1;fill-rule:evenodd"
     inkscape:connector-curvature="0" />
</svg>
