<?xml version="1.0" encoding="UTF-8" standalone="no"?>
<!-- Generator: Avocode 2.6.0 - http://avocode.com -->

<svg
   xmlns:dc="http://purl.org/dc/elements/1.1/"
   xmlns:cc="http://creativecommons.org/ns#"
   xmlns:rdf="http://www.w3.org/1999/02/22-rdf-syntax-ns#"
   xmlns:svg="http://www.w3.org/2000/svg"
   xmlns="http://www.w3.org/2000/svg"
   xmlns:sodipodi="http://sodipodi.sourceforge.net/DTD/sodipodi-0.dtd"
   xmlns:inkscape="http://www.inkscape.org/namespaces/inkscape"
   height="25"
   width="25"
   viewBox="0 0 25 25"
   id="svg6385"
   version="1.1"
   inkscape:version="0.91 r13725"
   sodipodi:docname="comment.svg">
  <metadata
     id="metadata6393">
    <rdf:RDF>
      <cc:Work
         rdf:about="">
        <dc:format>image/svg+xml</dc:format>
        <dc:type
           rdf:resource="http://purl.org/dc/dcmitype/StillImage" />
        <dc:title></dc:title>
      </cc:Work>
    </rdf:RDF>
  </metadata>
  <defs
     id="defs6391" />
  <sodipodi:namedview
     pagecolor="#ffffff"
     bordercolor="#666666"
     borderopacity="1"
     objecttolerance="10"
     gridtolerance="10"
     guidetolerance="10"
     inkscape:pageopacity="0"
     inkscape:pageshadow="2"
     inkscape:window-width="1230"
     inkscape:window-height="745"
     id="namedview6389"
     showgrid="false"
     inkscape:zoom="13.882353"
     inkscape:cx="10.5"
     inkscape:cy="8.5"
     inkscape:window-x="-8"
     inkscape:window-y="-8"
     inkscape:window-maximized="1"
     inkscape:current-layer="svg6385" />
  <path
     style="color:#000000;font-style:normal;font-variant:normal;font-weight:normal;font-stretch:normal;font-size:medium;line-height:normal;font-family:sans-serif;text-indent:0;text-align:start;text-decoration:none;text-decoration-line:none;text-decoration-style:solid;text-decoration-color:#000000;letter-spacing:normal;word-spacing:normal;text-transform:none;direction:ltr;block-progression:tb;writing-mode:lr-tb;baseline-shift:baseline;text-anchor:start;white-space:normal;clip-rule:nonzero;display:inline;overflow:visible;visibility:visible;opacity:1;isolation:auto;mix-blend-mode:normal;color-interpolation:sRGB;color-interpolation-filters:linearRGB;solid-color:#000000;solid-opacity:1;fill:#000000;fill-opacity:1;fill-rule:evenodd;stroke:none;stroke-width:1.60000002;stroke-linecap:butt;stroke-linejoin:miter;stroke-miterlimit:4;stroke-dasharray:none;stroke-dashoffset:0;stroke-opacity:1;color-rendering:auto;image-rendering:auto;shape-rendering:auto;text-rendering:auto;enable-background:accumulate"
     d="m 13.894001,3.2373543 c -2.73065,0 -5.2644927,0.5283209 -7.1777338,1.8613282 -1.9132411,1.3330071 -3.1230469,3.5203511 -3.1230469,6.4394535 0,1.573558 0.3701163,2.910954 0.9902344,4.039062 l 0,1.480469 c 0,0.08429 -0.09859,0.42426 -0.3242188,0.802735 -0.2256292,0.378474 -0.5503073,0.806706 -0.8808593,1.195312 -0.6611041,0.777212 -1.328125,1.394531 -1.328125,1.394531 l -1.46093746,1.351563 1.98828116,0.03711 c 0,0 1.6697912,0.03218 3.4902344,-0.27539 0.9102216,-0.153785 1.8652688,-0.387384 2.7109375,-0.789063 0.6402182,-0.304093 1.178617,-0.773438 1.5839848,-1.355469 1.11913,0.244015 2.281991,0.419922 3.531249,0.419922 2.730651,0 5.26254,-0.528321 7.175781,-1.861328 1.913242,-1.333007 3.123047,-3.520351 3.123047,-6.439453 0,-2.9191024 -1.209805,-5.1064464 -3.123047,-6.4394535 -1.913241,-1.3330073 -4.44513,-1.8613282 -7.175781,-1.8613282 z m 0,1.6015626 c 2.519349,0 4.735507,0.5102728 6.259766,1.5722657 1.524259,1.061993 2.439453,2.626055 2.439453,5.1269534 0,2.500898 -0.915194,4.06496 -2.439453,5.126953 -1.524259,1.061993 -3.740417,1.572266 -6.259766,1.572266 -1.332445,0 -2.577132,-0.14383 -3.689453,-0.433594 L 9.5072828,17.62212 9.2553297,18.295948 c -0.1391623,0.370143 -0.5274656,0.731758 -1.1621094,1.033204 -0.6346438,0.301445 -1.4719403,0.519487 -2.2929688,0.658203 -0.6150222,0.10391 -0.6825436,0.05766 -1.1953124,0.09375 0.3644018,-0.429013 0.7339247,-0.904928 1.0292968,-1.400391 0.2974958,-0.499025 0.5488281,-1.007332 0.5488282,-1.623047 l 0,-1.84375 -0.1152344,-0.189453 c -0.5480821,-0.90477 -0.875,-2.038621 -0.875,-3.486328 0,-2.5008984 0.9151942,-4.0649604 2.4394531,-5.1269534 C 9.1565417,5.3491897 11.374652,4.8389169 13.894001,4.8389169 Z"
     id="path6387"
     inkscape:connector-curvature="0" />
</svg>
