<?xml version="1.0" encoding="UTF-8" standalone="no"?>
<svg
   xmlns:dc="http://purl.org/dc/elements/1.1/"
   xmlns:cc="http://creativecommons.org/ns#"
   xmlns:rdf="http://www.w3.org/1999/02/22-rdf-syntax-ns#"
   xmlns:svg="http://www.w3.org/2000/svg"
   xmlns="http://www.w3.org/2000/svg"
   version="1.1"
   id="svg4760"
   viewBox="0 0 30 30"
   width="30"
   height="30">
  <metadata
     id="metadata4770">
    <rdf:RDF>
      <cc:Work
         rdf:about="">
        <dc:format>image/svg+xml</dc:format>
        <dc:type
           rdf:resource="http://purl.org/dc/dcmitype/StillImage" />
        <dc:title></dc:title>
      </cc:Work>
    </rdf:RDF>
  </metadata>
  <defs
     id="defs4768" />
  <path
     d="m 5.9067797,10.822034 21.5254233,0 0,2.152541 -21.5254233,0 0,-2.152541 z m 0,0 M 4.8199981,4.3644068 c -2.3585559,0 -4.29457437,1.9360181 -4.29457437,4.2945739 l 0,12.9362753 c 0,2.351346 1.93166987,4.294574 4.29457437,4.294574 l 20.4701729,0 c 2.358556,0 4.294574,-1.936018 4.294574,-4.294574 l 0,-12.9362753 c 0,-2.3513458 -1.93167,-4.2945739 -4.294574,-4.2945739 l -20.4701729,0 z m 0,2.1525424 20.4701729,0 c 1.18879,0 2.142032,0.9632089 2.142032,2.1420315 l 0,12.9362753 c 0,1.193138 -0.948894,2.142031 -2.142032,2.142031 l -20.4701729,0 c -1.1887905,0 -2.1420319,-0.963209 -2.1420319,-2.142031 l 0,-12.9362753 c 0,-1.1931381 0.9488929,-2.1420315 2.1420319,-2.1420315 z"
     style="fill:#000000;fill-opacity:1"
     id="path4764" />
</svg>
