<?xml version="1.0" encoding="utf-8"?>
<!-- Generator: Adobe Illustrator 23.0.3, SVG Export Plug-In . SVG Version: 6.00 Build 0)  -->
<svg version="1.1" id="Layer_1" xmlns="http://www.w3.org/2000/svg" xmlns:xlink="http://www.w3.org/1999/xlink" x="0px" y="0px"
	 viewBox="0 0 197.5 222" style="enable-background:new 0 0 197.5 222;" xml:space="preserve">
<style type="text/css">
	.st0{fill-rule:evenodd;clip-rule:evenodd;fill:#FFFFFF;}
	.st1{fill:#FFFFFF;}
</style>
<path class="st0" d="M116.5,0c-3.6,0-6.8,0.4-9.9,1.2c-2.8-0.8-6.4-1.2-9.5-1.2C78,0,62.4,13.9,62.4,30.6h4.8
	c0-14.3,13.5-25.9,29.8-25.9c0.4,0,0.8,0,1.2,0c-9.5,5.6-16.3,15.1-16.3,25.9h4.8c0-11.1,8.4-20.7,19.9-24.3
	c11.5,3.6,19.9,13.1,19.9,24.3h4.8c0-10.7-6.4-20.3-15.9-25.9c0.4,0,0.8,0,1.2,0c16.3,0,29.8,11.5,29.8,25.9h4.8
	C151.2,13.9,135.6,0,116.5,0z"/>
<polygon class="st1" points="117.1,176 115.7,174.7 115.8,173.8 115.7,174.7 "/>
<path class="st1" d="M115.7,174.7l0-0.8l81.7-33.4l-9-104.3H15.9L0,221.2l1.5-0.6L0,222h165.5l-48.4-46L115.7,174.7z M14.8,216
	l1.6-1.5h0l96.1-93.3l-2.7,51.4l-0.1,1.8l-0.1,2l0,0l0,0.8l2,1.9l1.3,1.3l37.5,35.7H14.8z"/>
</svg>
