<svg height="14" width="21" xmlns:xlink="http://www.w3.org/1999/xlink" xmlns="http://www.w3.org/2000/svg" viewBox="0 0 21 14">
    <path d="M 10.49 0.15 C 5.86 0.15 1.87 2.87 0.04 6.81 C -0.01 6.93 -0.01 7.07 0.04 7.19 C 1.87 11.13 5.86 13.86 10.49 13.86 C 15.12 13.86 19.11 11.13 20.94 7.19 C 20.99 7.07 20.99 6.93 20.94 6.81 C 19.11 2.87 15.12 0.15 10.49 0.15 L 10.49 0.15 Z M 10.49 11.73 C 7.88 11.73 5.76 9.61 5.76 7 C 5.76 4.39 7.88 2.27 10.49 2.27 C 13.1 2.27 15.22 4.39 15.22 7 C 15.22 9.61 13.1 11.73 10.49 11.73 L 10.49 11.73 Z M 10.49 11.73" />
    <path fill-rule="evenodd" d="M 10.49 10.03 C 12.16 10.03 13.52 8.67 13.52 7 C 13.52 5.33 12.16 3.97 10.49 3.97 C 8.82 3.97 7.46 5.33 7.46 7 C 7.46 8.67 8.82 10.03 10.49 10.03 Z M 10.49 10.03" />
</svg>
