<?xml version="1.0" encoding="utf-8"?>
<!-- Generator: Avocode 2.5.4 - http://avocode.com -->
<svg height="18" width="11" xmlns:xlink="http://www.w3.org/1999/xlink" xmlns="http://www.w3.org/2000/svg" viewBox="0 0 11 18">
    <path d="M 9.73 0.28 L 7.43 0.28 C 4.84 0.28 3.17 1.95 3.17 4.53 L 3.17 6.49 L 0.86 6.49 C 0.66 6.49 0.5 6.65 0.5 6.85 L 0.5 9.69 C 0.5 9.88 0.66 10.04 0.86 10.04 L 3.17 10.04 L 3.17 17.21 C 3.17 17.41 3.34 17.56 3.54 17.56 L 6.55 17.56 C 6.75 17.56 6.92 17.41 6.92 17.21 L 6.92 10.04 L 9.62 10.04 C 9.82 10.04 9.98 9.88 9.98 9.69 L 9.98 6.85 C 9.98 6.75 9.95 6.66 9.88 6.6 C 9.81 6.53 9.72 6.49 9.62 6.49 L 6.92 6.49 L 6.92 4.83 C 6.92 4.03 7.11 3.63 8.18 3.63 L 9.73 3.63 C 9.93 3.63 10.09 3.47 10.09 3.27 L 10.09 0.64 C 10.09 0.44 9.93 0.28 9.73 0.28 L 9.73 0.28 Z M 9.73 0.28" />
</svg>
