<svg viewBox="0 0 36 24" xmlns="http://www.w3.org/2000/svg">
  <path  d="M 1.028 3.902 C 2.786 -1.814 12.773 -0.58 13.249 3.316 C 13.273 3.512 13.296 3.707 13.317 3.9 L 22.431 3.9 C 22.453 3.707 22.474 3.512 22.499 3.316 C 22.986 -0.58 33.163 -1.814 34.953 3.902 C 36.722 9.547 35.937 17.063 34.881 20.171 C 32.578 26.941 25.665 24.384 23.142 15.253 L 12.619 15.253 C 10.143 24.384 3.36 26.941 1.099 20.171 C 0.061 17.063 -0.708 9.547 1.028 3.902 Z M 5.823 8.216 L 3.171 8.216 L 3.171 9.549 L 5.823 9.549 L 5.823 12.219 L 7.148 12.219 L 7.148 9.549 L 9.799 9.549 L 9.799 8.216 L 7.148 8.216 L 7.148 5.547 L 5.823 5.547 Z M 33.116 9.372 C 33.108 6.15 29.726 4.145 27.028 5.763 C 25.777 6.515 25.008 7.899 25.012 9.396 C 25.021 12.618 28.404 14.623 31.101 13.004 C 32.353 12.254 33.12 10.868 33.116 9.372 Z M 31.555 9.377 C 31.562 11.311 29.488 12.526 27.825 11.562 C 27.053 11.116 26.576 10.288 26.573 9.391 C 26.568 7.457 28.641 6.242 30.305 7.204 C 31.076 7.652 31.554 8.48 31.555 9.377 Z M 14.094 9.985 L 14.094 9.986 C 14.094 10.34 14.378 10.626 14.729 10.626 L 16.305 10.626 C 16.657 10.626 16.941 10.34 16.941 9.986 L 16.941 9.985 C 16.941 9.631 16.657 9.345 16.305 9.345 L 14.729 9.345 C 14.378 9.345 14.094 9.631 14.094 9.985 Z M 19.028 9.985 L 19.028 9.986 C 19.028 10.34 19.314 10.626 19.664 10.626 L 21.241 10.626 C 21.592 10.626 21.876 10.34 21.876 9.986 L 21.876 9.985 C 21.876 9.631 21.592 9.345 21.241 9.345 L 19.664 9.345 C 19.314 9.345 19.028 9.631 19.028 9.985 Z"></path>
</svg>