<?xml version="1.0" encoding="UTF-8" standalone="no"?>
<!-- Generator: Avocode 2.6.0 - http://avocode.com -->

<svg
   xmlns:dc="http://purl.org/dc/elements/1.1/"
   xmlns:cc="http://creativecommons.org/ns#"
   xmlns:rdf="http://www.w3.org/1999/02/22-rdf-syntax-ns#"
   xmlns:svg="http://www.w3.org/2000/svg"
   xmlns="http://www.w3.org/2000/svg"
   xmlns:sodipodi="http://sodipodi.sourceforge.net/DTD/sodipodi-0.dtd"
   xmlns:inkscape="http://www.inkscape.org/namespaces/inkscape"
   height="25"
   width="25"
   viewBox="0 0 25 25"
   id="svg5255"
   version="1.1"
   inkscape:version="0.91 r13725"
   sodipodi:docname="gear.svg">
  <metadata
     id="metadata5263">
    <rdf:RDF>
      <cc:Work
         rdf:about="">
        <dc:format>image/svg+xml</dc:format>
        <dc:type
           rdf:resource="http://purl.org/dc/dcmitype/StillImage" />
        <dc:title></dc:title>
      </cc:Work>
    </rdf:RDF>
  </metadata>
  <defs
     id="defs5261" />
  <sodipodi:namedview
     pagecolor="#ffffff"
     bordercolor="#666666"
     borderopacity="1"
     objecttolerance="10"
     gridtolerance="10"
     guidetolerance="10"
     inkscape:pageopacity="0"
     inkscape:pageshadow="2"
     inkscape:window-width="1230"
     inkscape:window-height="745"
     id="namedview5259"
     showgrid="false"
     inkscape:zoom="12.421053"
     inkscape:cx="9.5"
     inkscape:cy="9.5"
     inkscape:window-x="-8"
     inkscape:window-y="-8"
     inkscape:window-maximized="1"
     inkscape:current-layer="svg5255" />
  <path
     style="fill:#000000;fill-opacity:1;stroke:none;stroke-opacity:1"
     d="M 9.6394001,3.038566 8.1784626,3.6284097 9.0983845,5.9077066 c -1.15,0.65 -2.11,1.6000005 -2.75,2.7500005 l -2.2792969,-0.919922 -0.5898437,1.460937 2.25,0.9199219 c -0.18,0.63 -0.2890625,1.31 -0.2890625,2 0,0.69 0.1090625,1.37 0.2890625,2 l -2.25,0.919922 0.5898437,1.460937 2.2792969,-0.910156 c 0.64,1.14 1.6,2.090235 2.75,2.740235 l -0.9199219,2.279296 1.4609375,0.589844 0.9199219,-2.25 c 0.63,0.19 1.3,0.300781 2,0.300781 0.69,0 1.37,-0.120781 2,-0.300781 l 0.919922,2.25 1.460937,-0.589844 -0.919921,-2.279296 c 1.149999,-0.650001 2.099999,-1.600001 2.75,-2.75 l 2.279296,0.919921 0.589844,-1.460937 -2.25,-0.919922 c 0.18,-0.63 0.289063,-1.31 0.289063,-2 0,-0.69 -0.109063,-1.37 -0.289063,-2 l 2.25,-0.9199219 -0.599609,-1.460937 -2.269531,0.919922 c -0.650001,-1.15 -1.600001,-2.1000005 -2.75,-2.7500005 l 0.919921,-2.2792969 -1.460937,-0.5898437 -0.919922,2.25 c -0.63,-0.18 -1.31,-0.2890625 -2,-0.2890625 -0.69,0 -1.37,0.1090625 -2,0.2890625 l -0.9199219,-2.25 z m 2.9199219,3.5410156 c 3.07,0 5.539062,2.4690625 5.539062,5.5390624 0,3.07 -2.469062,5.539062 -5.539062,5.539062 -3.07,0 -5.5390625,-2.469062 -5.5390625,-5.539062 0,-3.0699999 2.4690625,-5.5390624 5.5390625,-5.5390624 z m 0,2.3691405 c -1.74,0 -3.1699219,1.4299219 -3.1699219,3.1699219 0,1.74 1.4299219,3.169922 3.1699219,3.169922 1.74,0 3.169922,-1.429922 3.169922,-3.169922 0,-1.74 -1.429922,-3.1699219 -3.169922,-3.1699219 z m 0,1.5898439 c 0.88,0 1.580078,0.700078 1.580078,1.580078 0,0.88 -0.700078,1.580078 -1.580078,1.580078 -0.88,0 -1.580078,-0.700078 -1.580078,-1.580078 0,-0.88 0.700078,-1.580078 1.580078,-1.580078 z"
     id="path5257"
     inkscape:connector-curvature="0" />
</svg>
