<svg height="30" width="28" xmlns:xlink="http://www.w3.org/1999/xlink" xmlns="http://www.w3.org/2000/svg" viewBox="0 0 28 30">
    <path d="M 9.2 28.52 C 5.74 28.52 3.25 26.26 3.25 23.55 C 3.25 20.89 6.34 18.68 9.8 18.71 C 10.6 18.73 11.35 18.86 12.03 19.09 C 13.91 20.43 15.25 21.19 15.63 22.73 C 15.7 23.04 15.74 23.36 15.74 23.69 C 15.74 26.4 14.05 28.52 9.2 28.52 M 10.1 12.61 C 7.78 12.54 5.58 9.94 5.18 6.79 C 4.78 3.65 6.34 1.24 8.65 1.31 C 10.97 1.39 13.18 3.91 13.58 7.05 C 13.98 10.2 12.42 12.69 10.1 12.61 M 14.91 17.27 C 14.09 16.67 12.54 15.23 12.54 14.38 C 12.54 13.38 12.82 12.89 14.27 11.72 C 15.76 10.52 16.81 8.83 16.81 6.87 C 16.81 4.53 15.8 2.25 13.91 1.5 L 16.76 1.5 L 18.78 0 L 9.78 0 C 5.74 0 1.95 3.16 1.95 6.81 C 1.95 10.55 4.7 13.56 8.8 13.56 C 9.09 13.56 9.36 13.56 9.63 13.53 C 9.37 14.06 9.18 14.65 9.18 15.27 C 9.18 16.31 9.72 17.15 10.4 17.84 C 9.89 17.84 9.39 17.85 8.84 17.85 C 3.85 17.85 0 21.14 0 24.55 C 0 27.9 4.22 30 9.21 30 C 14.91 30 18.06 26.66 18.06 23.31 C 18.06 20.62 17.29 19 14.91 17.27 M 28 12.89 L 24.5 12.89 L 24.5 9.27 L 21.68 9.27 L 21.68 12.89 L 18.18 12.89 L 18.18 15.8 L 21.68 15.8 L 21.68 19.41 L 24.5 19.41 L 24.5 15.8 L 28 15.8 L 28 12.89" />
</svg>
