<?xml version="1.0" encoding="UTF-8" standalone="no"?>
<!-- Generator: Avocode 2.6.0 - http://avocode.com -->

<svg
   xmlns:dc="http://purl.org/dc/elements/1.1/"
   xmlns:cc="http://creativecommons.org/ns#"
   xmlns:rdf="http://www.w3.org/1999/02/22-rdf-syntax-ns#"
   xmlns:svg="http://www.w3.org/2000/svg"
   xmlns="http://www.w3.org/2000/svg"
   xmlns:sodipodi="http://sodipodi.sourceforge.net/DTD/sodipodi-0.dtd"
   xmlns:inkscape="http://www.inkscape.org/namespaces/inkscape"
   height="26"
   width="26"
   viewBox="0 0 26 26"
   id="svg4136"
   version="1.1"
   inkscape:version="0.91 r13725"
   sodipodi:docname="gogles.svg">
  <metadata
     id="metadata4152">
    <rdf:RDF>
      <cc:Work
         rdf:about="">
        <dc:format>image/svg+xml</dc:format>
        <dc:type
           rdf:resource="http://purl.org/dc/dcmitype/StillImage" />
        <dc:title></dc:title>
      </cc:Work>
    </rdf:RDF>
  </metadata>
  <defs
     id="defs4150" />
  <sodipodi:namedview
     pagecolor="#ffffff"
     bordercolor="#666666"
     borderopacity="1"
     objecttolerance="10"
     gridtolerance="10"
     guidetolerance="10"
     inkscape:pageopacity="0"
     inkscape:pageshadow="2"
     inkscape:window-width="1268"
     inkscape:window-height="745"
     id="namedview4148"
     showgrid="false"
     inkscape:zoom="20.4789"
     inkscape:cx="15.139987"
     inkscape:cy="7.4319944"
     inkscape:window-x="-8"
     inkscape:window-y="-8"
     inkscape:window-maximized="1"
     inkscape:current-layer="svg4136" />
  <path
     style="color:#000000;font-style:normal;font-variant:normal;font-weight:normal;font-stretch:normal;font-size:medium;line-height:normal;font-family:sans-serif;text-indent:0;text-align:start;text-decoration:none;text-decoration-line:none;text-decoration-style:solid;text-decoration-color:#000000;letter-spacing:normal;word-spacing:normal;text-transform:none;direction:ltr;block-progression:tb;writing-mode:lr-tb;baseline-shift:baseline;text-anchor:start;white-space:normal;clip-rule:nonzero;display:inline;overflow:visible;visibility:visible;opacity:1;isolation:auto;mix-blend-mode:normal;color-interpolation:sRGB;color-interpolation-filters:linearRGB;solid-color:#000000;solid-opacity:1;fill:#000000;fill-opacity:1;fill-rule:evenodd;stroke:none;stroke-width:1.70000005;stroke-linecap:butt;stroke-linejoin:miter;stroke-miterlimit:4;stroke-dasharray:none;stroke-dashoffset:0;stroke-opacity:1;color-rendering:auto;image-rendering:auto;shape-rendering:auto;text-rendering:auto;enable-background:accumulate"
     d="m 6.5,8.9468255 c -2.2197866,0 -4.0457139,1.6945585 -4.2988281,3.8496095 l -2.2011719,0 0,2 2.4355469,0 C 3.0522808,16.451283 4.6380022,17.646044 6.5,17.646044 c 2.0555482,0 3.783846,-1.451511 4.230469,-3.376953 l 0.30664,0.101563 0.269532,-0.804688 c 0,0 0.05349,-0.176533 0.294921,-0.417969 C 11.842998,12.906562 12.2125,12.646044 13,12.646044 c 0.7875,0 1.157001,0.260518 1.398438,0.501953 0.241434,0.241436 0.294921,0.417969 0.294921,0.417969 l 0.269532,0.804688 0.30664,-0.101563 c 0.446623,1.925442 2.174921,3.376953 4.230469,3.376953 1.861998,0 3.447719,-1.194761 4.064453,-2.849609 l 2.435547,0 0,-2 -2.201172,0 C 23.545714,10.641384 21.719786,8.9468255 19.5,8.9468255 c -1.865669,0 -3.454297,1.1994215 -4.068359,2.8593755 C 14.907863,11.35237 14.098696,10.946826 13,10.946826 c -1.098696,0 -1.907863,0.405544 -2.431641,0.859375 C 9.9542973,10.146247 8.3656693,8.9468255 6.5,8.9468255 Z m 0,1.6992185 c 1.4690328,0 2.6503906,1.181358 2.6503906,2.650391 0,1.469033 -1.1813578,2.650391 -2.6503906,2.650391 -1.4690328,0 -2.6503906,-1.181358 -2.6503906,-2.650391 0,-1.469033 1.1813578,-2.650391 2.6503906,-2.650391 z m 13,0 c 1.469033,0 2.650391,1.181358 2.650391,2.650391 0,1.469033 -1.181358,2.650391 -2.650391,2.650391 -1.469033,0 -2.650391,-1.181358 -2.650391,-2.650391 0,-1.469033 1.181358,-2.650391 2.650391,-2.650391 z"
     id="path4138"
     inkscape:connector-curvature="0" />
</svg>
