<?xml version="1.0" encoding="UTF-8" standalone="no"?>
<!-- Generator: Avocode 2.6.0 - http://avocode.com -->

<svg
   xmlns:dc="http://purl.org/dc/elements/1.1/"
   xmlns:cc="http://creativecommons.org/ns#"
   xmlns:rdf="http://www.w3.org/1999/02/22-rdf-syntax-ns#"
   xmlns:svg="http://www.w3.org/2000/svg"
   xmlns="http://www.w3.org/2000/svg"
   xmlns:sodipodi="http://sodipodi.sourceforge.net/DTD/sodipodi-0.dtd"
   xmlns:inkscape="http://www.inkscape.org/namespaces/inkscape"
   height="24"
   width="24"
   viewBox="0 0 24 24"
   id="svg4148"
   version="1.1"
   inkscape:version="0.91 r13725"
   sodipodi:docname="heart.svg">
  <metadata
     id="metadata4156">
    <rdf:RDF>
      <cc:Work
         rdf:about="">
        <dc:format>image/svg+xml</dc:format>
        <dc:type
           rdf:resource="http://purl.org/dc/dcmitype/StillImage" />
        <dc:title></dc:title>
      </cc:Work>
    </rdf:RDF>
  </metadata>
  <defs
     id="defs4154" />
  <sodipodi:namedview
     pagecolor="#ffffff"
     bordercolor="#666666"
     borderopacity="1"
     objecttolerance="10"
     gridtolerance="10"
     guidetolerance="10"
     inkscape:pageopacity="0"
     inkscape:pageshadow="2"
     inkscape:window-width="1230"
     inkscape:window-height="745"
     id="namedview4152"
     showgrid="false"
     inkscape:zoom="13.882353"
     inkscape:cx="9.5"
     inkscape:cy="8.5"
     inkscape:window-x="-8"
     inkscape:window-y="-8"
     inkscape:window-maximized="1"
     inkscape:current-layer="svg4148" />
  <path
     style="color:#000000;font-style:normal;font-variant:normal;font-weight:normal;font-stretch:normal;font-size:medium;line-height:normal;font-family:sans-serif;text-indent:0;text-align:start;text-decoration:none;text-decoration-line:none;text-decoration-style:solid;text-decoration-color:#000000;letter-spacing:normal;word-spacing:normal;text-transform:none;direction:ltr;block-progression:tb;writing-mode:lr-tb;baseline-shift:baseline;text-anchor:start;white-space:normal;clip-rule:nonzero;display:inline;overflow:visible;visibility:visible;opacity:1;isolation:auto;mix-blend-mode:normal;color-interpolation:sRGB;color-interpolation-filters:linearRGB;solid-color:#000000;solid-opacity:1;fill:#000000;fill-opacity:1;fill-rule:evenodd;stroke:none;stroke-width:2;stroke-linecap:butt;stroke-linejoin:miter;stroke-miterlimit:4;stroke-dasharray:none;stroke-dashoffset:0;stroke-opacity:1;color-rendering:auto;image-rendering:auto;shape-rendering:auto;text-rendering:auto;enable-background:accumulate"
     d="m 7.5355535,2.1822034 c -3.451695,0 -6.2304688,2.6886096 -6.2304688,6.080078 0,2.0617426 0.9634956,3.8991026 2.46875,5.6816406 1.5052545,1.782538 3.5761487,3.579726 6.0488281,5.707031 l 1.9824222,1.923828 1.982422,-1.923828 0.04297,-0.04102 c 2.449317,-2.10742 4.511356,-3.896209 6.005859,-5.666015 1.505253,-1.782534 2.468749,-3.619894 2.468749,-5.6816366 0,-3.3914684 -2.778774,-6.080078 -6.230469,-6.080078 -1.597371,0 -3.072215,0.6983063 -4.269531,1.7226562 C 10.607768,2.8805097 9.1329249,2.1822034 7.5355535,2.1822034 Z m 0,2 c 1.3035817,0 2.6670075,0.6255752 3.5175785,1.5976562 l 0.751953,0.8613278 0.751953,-0.8613278 c 0.850571,-0.972081 2.213996,-1.5976562 3.517578,-1.5976562 2.448305,0 4.230469,1.7515467 4.230469,4.080078 0,1.448258 -0.651348,2.8001156 -1.996094,4.3925776 -1.344745,1.592462 -3.358851,3.355821 -5.826172,5.478516 l -0.02344,0.01953 -0.654294,0.63672 -0.654297,-0.636719 -0.02344,-0.01953 C 8.6600298,16.01068 6.645924,14.247321 5.3011785,12.654859 3.9564329,11.062397 3.3050847,9.7105394 3.3050847,8.2622814 c 0,-2.3285313 1.7821637,-4.080078 4.2304688,-4.080078 z"
     id="path4150"
     inkscape:connector-curvature="0" />
</svg>
