<svg height="17" width="17" xmlns:xlink="http://www.w3.org/1999/xlink" xmlns="http://www.w3.org/2000/svg" viewBox="0 0 17 17">
    <path d="M 14.61 0.67 L 2.31 0.67 C 1.46 0.67 0.77 1.37 0.77 2.21 L 0.77 14.49 C 0.77 15.33 1.46 16.02 2.31 16.02 L 14.61 16.02 C 15.45 16.02 16.15 15.33 16.15 14.49 L 16.15 2.21 C 16.15 1.37 15.45 0.67 14.61 0.67 L 14.61 0.67 Z M 8.46 5.28 C 10.15 5.28 11.53 6.66 11.53 8.35 C 11.53 10.04 10.15 11.42 8.46 11.42 C 6.77 11.42 5.38 10.04 5.38 8.35 C 5.38 6.66 6.77 5.28 8.46 5.28 L 8.46 5.28 Z M 2.69 14.49 C 2.46 14.49 2.31 14.33 2.31 14.1 L 2.31 7.58 L 3.92 7.58 C 3.85 7.81 3.85 8.12 3.85 8.35 C 3.85 10.88 5.92 12.95 8.46 12.95 C 11 12.95 13.07 10.88 13.07 8.35 C 13.07 8.12 13.07 7.81 12.99 7.58 L 14.61 7.58 L 14.61 14.1 C 14.61 14.33 14.45 14.49 14.22 14.49 L 2.69 14.49 L 2.69 14.49 Z M 14.61 4.13 C 14.61 4.36 14.45 4.51 14.22 4.51 L 12.69 4.51 C 12.46 4.51 12.3 4.36 12.3 4.13 L 12.3 2.59 C 12.3 2.36 12.46 2.21 12.69 2.21 L 14.22 2.21 C 14.45 2.21 14.61 2.36 14.61 2.59 L 14.61 4.13 L 14.61 4.13 Z M 14.61 4.13" />
</svg>
