<?xml version="1.0" encoding="UTF-8" standalone="no"?>
<svg
   xmlns:dc="http://purl.org/dc/elements/1.1/"
   xmlns:cc="http://creativecommons.org/ns#"
   xmlns:rdf="http://www.w3.org/1999/02/22-rdf-syntax-ns#"
   xmlns:svg="http://www.w3.org/2000/svg"
   xmlns="http://www.w3.org/2000/svg"
   version="1.1"
   id="svg5315"
   viewBox="0 0 26 26"
   width="26"
   height="26">
  <metadata
     id="metadata5329">
    <rdf:RDF>
      <cc:Work
         rdf:about="">
        <dc:format>image/svg+xml</dc:format>
        <dc:type
           rdf:resource="http://purl.org/dc/dcmitype/StillImage" />
        <dc:title></dc:title>
      </cc:Work>
    </rdf:RDF>
  </metadata>
  <defs
     id="defs5327" />
  <path
     id="path5317"
     d="m 15.338983,0.22033898 c -1.921063,0 -3.5,1.57893722 -3.5,3.50000002 0,1.9210628 1.578937,3.5 3.5,3.5 1.921063,0 3.5,-1.5789372 3.5,-3.5 0,-1.9210628 -1.578937,-3.50000002 -3.5,-3.50000002 z m 0,2.00000002 c 0.838937,0 1.5,0.6610628 1.5,1.5 0,0.8389372 -0.661063,1.5 -1.5,1.5 -0.838937,0 -1.5,-0.6610628 -1.5,-1.5 0,-0.8389372 0.661063,-1.5 1.5,-1.5 z M 12.190546,7.2808859 A 1.0001,1.0001 0 0 0 11.71203,7.423464 L 8.3624206,9.4449484 a 1.0001,1.0001 0 0 0 -0.453125,0.6093746 l -0.96875,3.830078 -0.2460938,0.970704 1.9375001,0.490234 0.2460937,-0.96875 0.8691406,-3.431641 2.4570308,-1.4804684 -0.792968,6.0234374 5.591796,9.269531 0.515626,0.855469 1.71289,-1.033203 -0.515625,-0.855469 -5.230469,-8.669922 0.654297,-4.980468 0.03516,0.01367 1.720704,2.701171 a 1.0001,1.0001 0 0 0 0.408203,0.361329 l 2.089844,1.009765 0.90039,0.435547 0.871094,-1.800781 -0.900391,-0.435547 -1.835937,-0.884766 -1.746094,-2.7421872 A 1.0001,1.0001 0 0 0 15.194452,8.3355734 L 12.583124,7.345339 A 1.0001,1.0001 0 0 0 12.190546,7.2808859 Z M 10.534296,18.413698 9.977655,19.243777 7.0186706,23.663698 6.4620299,24.49573 8.1241393,25.607058 8.68078,24.77698 l 2.958984,-4.419922 0.556641,-0.832031 -1.662109,-1.111329 z"
     style="color:#000000;font-style:normal;font-variant:normal;font-weight:normal;font-stretch:normal;font-size:medium;line-height:normal;font-family:sans-serif;text-indent:0;text-align:start;text-decoration:none;text-decoration-line:none;text-decoration-style:solid;text-decoration-color:#000000;letter-spacing:normal;word-spacing:normal;text-transform:none;direction:ltr;block-progression:tb;writing-mode:lr-tb;baseline-shift:baseline;text-anchor:start;white-space:normal;clip-rule:nonzero;display:inline;overflow:visible;visibility:visible;opacity:1;isolation:auto;mix-blend-mode:normal;color-interpolation:sRGB;color-interpolation-filters:linearRGB;solid-color:#000000;solid-opacity:1;fill:#000000;fill-opacity:1;fill-rule:evenodd;stroke:none;stroke-width:2;stroke-linecap:butt;stroke-linejoin:miter;stroke-miterlimit:4;stroke-dasharray:none;stroke-dashoffset:0;stroke-opacity:1;color-rendering:auto;image-rendering:auto;shape-rendering:auto;text-rendering:auto;enable-background:accumulate" />
</svg>
