<?xml version="1.0" encoding="UTF-8" standalone="no"?>
<!-- Generator: Avocode 2.6.0 - http://avocode.com -->

<svg
   xmlns:dc="http://purl.org/dc/elements/1.1/"
   xmlns:cc="http://creativecommons.org/ns#"
   xmlns:rdf="http://www.w3.org/1999/02/22-rdf-syntax-ns#"
   xmlns:svg="http://www.w3.org/2000/svg"
   xmlns="http://www.w3.org/2000/svg"
   xmlns:sodipodi="http://sodipodi.sourceforge.net/DTD/sodipodi-0.dtd"
   xmlns:inkscape="http://www.inkscape.org/namespaces/inkscape"
   height="25"
   width="25"
   viewBox="0 0 25 25"
   id="svg7550"
   version="1.1"
   inkscape:version="0.91 r13725"
   sodipodi:docname="pencil.svg">
  <metadata
     id="metadata7558">
    <rdf:RDF>
      <cc:Work
         rdf:about="">
        <dc:format>image/svg+xml</dc:format>
        <dc:type
           rdf:resource="http://purl.org/dc/dcmitype/StillImage" />
        <dc:title></dc:title>
      </cc:Work>
    </rdf:RDF>
  </metadata>
  <defs
     id="defs7556" />
  <sodipodi:namedview
     pagecolor="#ffffff"
     bordercolor="#666666"
     borderopacity="1"
     objecttolerance="10"
     gridtolerance="10"
     guidetolerance="10"
     inkscape:pageopacity="0"
     inkscape:pageshadow="2"
     inkscape:window-width="1230"
     inkscape:window-height="745"
     id="namedview7554"
     showgrid="false"
     inkscape:zoom="11.8"
     inkscape:cx="10"
     inkscape:cy="10"
     inkscape:window-x="-8"
     inkscape:window-y="-8"
     inkscape:window-maximized="1"
     inkscape:current-layer="svg7550" />
  <path
     d="m 19.977119,2.9861017 c -0.67,0 -1.32,0.27 -1.83,0.78 l -0.07,0.08 -0.5,-0.48 -0.55,0.55 -12.4800004,12.4700003 -0.17,0.18 -0.05,0.25 -0.88,4.4 -0.24,1.17 1.17,-0.24 4.4,-0.88 0.25,-0.05 0.18,-0.17 12.4700004,-12.4800003 0.55,-0.55 -0.48,-0.47 0.05,-0.06 0.03,-0.05 c 1.01,-1.01 1.01,-2.66 0,-3.67 -0.51,-0.51 -1.18,-0.78 -1.85,-0.78 l 0,0 z m 0,1.58 c 0.25,0 0.51,0.11 0.73,0.32 0.42,0.43 0.42,1 0,1.43 l -0.08,0.07 -1.42,-1.42 0.07,-0.07 c 0.21,-0.22 0.45,-0.33 0.7,-0.33 l 0,0 z m -2.38,1.05 2.38,2.37 -1.15,1.18 -2.4,-2.4 1.18,-1.15 -0.01,0 z m -2.27,2.3 2.35,2.3500003 -8.3500004,8.38 -0.32,-1.46 -0.11,-0.49 -0.5,-0.1 -1.45,-0.33 8.3800004,-8.3500003 0,0 z m -9.5200004,9.7200003 1.74,0.4 0.4,1.75 -1.62,0.33 -0.85,-0.85 0.33,-1.62 0,-0.01 z m 0,0"
     id="path7552"
     style="fill:#000000;fill-opacity:1;fill-rule:evenodd;stroke:none"
     inkscape:connector-curvature="0" />
</svg>
