<?xml version="1.0" encoding="UTF-8" standalone="no"?>
<!-- Generator: Avocode 2.6.0 - http://avocode.com -->

<svg
   xmlns:dc="http://purl.org/dc/elements/1.1/"
   xmlns:cc="http://creativecommons.org/ns#"
   xmlns:rdf="http://www.w3.org/1999/02/22-rdf-syntax-ns#"
   xmlns:svg="http://www.w3.org/2000/svg"
   xmlns="http://www.w3.org/2000/svg"
   xmlns:sodipodi="http://sodipodi.sourceforge.net/DTD/sodipodi-0.dtd"
   xmlns:inkscape="http://www.inkscape.org/namespaces/inkscape"
   height="25"
   width="25"
   viewBox="0 0 25 25"
   id="svg8066"
   version="1.1"
   inkscape:version="0.91 r13725"
   sodipodi:docname="phone.svg">
  <metadata
     id="metadata8074">
    <rdf:RDF>
      <cc:Work
         rdf:about="">
        <dc:format>image/svg+xml</dc:format>
        <dc:type
           rdf:resource="http://purl.org/dc/dcmitype/StillImage" />
        <dc:title></dc:title>
      </cc:Work>
    </rdf:RDF>
  </metadata>
  <defs
     id="defs8072" />
  <sodipodi:namedview
     pagecolor="#ffffff"
     bordercolor="#666666"
     borderopacity="1"
     objecttolerance="10"
     gridtolerance="10"
     guidetolerance="10"
     inkscape:pageopacity="0"
     inkscape:pageshadow="2"
     inkscape:window-width="1230"
     inkscape:window-height="745"
     id="namedview8070"
     showgrid="false"
     inkscape:zoom="12.421053"
     inkscape:cx="9.5"
     inkscape:cy="9.5"
     inkscape:window-x="-8"
     inkscape:window-y="-8"
     inkscape:window-maximized="1"
     inkscape:current-layer="svg8066" />
  <path
     d="m 7.1288136,3.1016949 c -0.39,0 -0.76,0.14 -1.08,0.39 l -0.04,0.02 -0.02,0.02 -2.28,2.35 0.02,0.03 c -0.7,0.65 -0.92,1.62 -0.62,2.46 0.01,0 0,0.02 0,0.02 0.62,1.7700001 2.2,5.1900001 5.29,8.2800001 3.1000004,3.11 6.5600004,4.63 8.2700004,5.3 l 0.02,0 c 0.89,0.29 1.85,0.08 2.53,-0.51 l 0.03,-0.02 0.02,-0.02 2.26,-2.26 c 0.6,-0.6 0.6,-1.65 0,-2.26 l -2.97,-2.96 -0.02,-0.05 c -0.6,-0.6 -1.67,-0.6 -2.28,0 l -0.02,0.02 -1.44,1.44 c -0.52,-0.25 -1.78,-0.9 -2.98,-2.05 -1.19,-1.14 -1.8,-2.45 -2.0300004,-2.97 L 11.248814,8.8716949 c 0.61,-0.61 0.62,-1.63 -0.02,-2.23 l 0.02,-0.03 -0.07,-0.06 -2.9100004,-3.02 -0.03,-0.02 -0.04,-0.02 c -0.32,-0.25 -0.69,-0.39 -1.08,-0.39 l 0.01,0 z m 0.16,1.53 2.9100004,2.99 0.05,0.04 c 0.01,0.02 0.06,0.1 -0.03,0.19 l -1.8200004,1.82 -0.34,0.32 0.16,0.4600001 c 0,0 0.84,2.24 2.6000004,3.92 l 0.16,0.14 c 1.69,1.55 3.69,2.39 3.69,2.39 l 0.45,0.21 0.35,-0.34 1.82,-1.83 c 0.12,-0.12 0.1,-0.12 0.22,0 l 2.99,2.99 c 0.12,0.12 0.12,0.08 0,0.2 l -2.23,2.24 c -0.34,0.29 -0.69,0.35 -1.12,0.21 -1.65,-0.65 -4.86,-2.07 -7.7200004,-4.93 -2.89,-2.89 -4.39,-6.1700001 -4.95,-7.7600001 -0.11,-0.3 -0.03,-0.74 0.23,-0.96 l 0.05,-0.04 2.21,-2.26 c 0.05,-0.04 0.1,-0.07 0.15,-0.07 0.06,0 0.11,0.03 0.17,0.07 z m 0,0"
     id="path8068"
     style="fill:#000000;fill-opacity:1;fill-rule:evenodd;stroke:none"
     inkscape:connector-curvature="0" />
</svg>
