<?xml version="1.0" encoding="UTF-8" standalone="no"?>
<!-- Generator: Avocode 2.6.0 - http://avocode.com -->

<svg
   xmlns:dc="http://purl.org/dc/elements/1.1/"
   xmlns:cc="http://creativecommons.org/ns#"
   xmlns:rdf="http://www.w3.org/1999/02/22-rdf-syntax-ns#"
   xmlns:svg="http://www.w3.org/2000/svg"
   xmlns="http://www.w3.org/2000/svg"
   xmlns:sodipodi="http://sodipodi.sourceforge.net/DTD/sodipodi-0.dtd"
   xmlns:inkscape="http://www.inkscape.org/namespaces/inkscape"
   height="19"
   width="19"
   viewBox="0 0 19 19"
   id="svg3336"
   version="1.1"
   inkscape:version="0.91 r13725"
   sodipodi:docname="plus.svg">
  <metadata
     id="metadata3346">
    <rdf:RDF>
      <cc:Work
         rdf:about="">
        <dc:format>image/svg+xml</dc:format>
        <dc:type
           rdf:resource="http://purl.org/dc/dcmitype/StillImage" />
        <dc:title></dc:title>
      </cc:Work>
    </rdf:RDF>
  </metadata>
  <defs
     id="defs3344" />
  <sodipodi:namedview
     pagecolor="#ffffff"
     bordercolor="#666666"
     borderopacity="1"
     objecttolerance="10"
     gridtolerance="10"
     guidetolerance="10"
     inkscape:pageopacity="0"
     inkscape:pageshadow="2"
     inkscape:window-width="1212"
     inkscape:window-height="745"
     id="namedview3342"
     showgrid="false"
     inkscape:zoom="30.315789"
     inkscape:cx="9.5"
     inkscape:cy="10.819444"
     inkscape:window-x="-8"
     inkscape:window-y="-8"
     inkscape:window-maximized="1"
     inkscape:current-layer="svg3336" />
  <path
     d="M 9.5 2 C 5.36 2 2 5.36 2 9.5 C 2 13.64 5.36 17 9.5 17 C 13.64 17 17 13.64 17 9.5 C 17 5.36 13.64 2 9.5 2 z M 9.5 3.3789062 C 12.87856 3.3789064 15.621094 6.1214401 15.621094 9.5 C 15.621094 12.878563 12.87856 15.621094 9.5 15.621094 C 6.1214382 15.621094 3.3789062 12.878563 3.3789062 9.5 C 3.3789062 6.1214401 6.1214382 3.3789062 9.5 3.3789062 z M 9 5 L 9 9 L 5 9 L 5 10 L 9 10 L 9 14 L 10 14 L 10 10 L 14 10 L 14 9 L 10 9 L 10 5 L 9 5 z "
     id="path3338" />
</svg>
