<?xml version="1.0" encoding="UTF-8" standalone="no"?>
<svg
   xmlns:dc="http://purl.org/dc/elements/1.1/"
   xmlns:cc="http://creativecommons.org/ns#"
   xmlns:rdf="http://www.w3.org/1999/02/22-rdf-syntax-ns#"
   xmlns:svg="http://www.w3.org/2000/svg"
   xmlns="http://www.w3.org/2000/svg"
   version="1.1"
   id="svg6338"
   viewBox="0 0 24 16"
   width="24"
   height="16">
  <metadata
     id="metadata6350">
    <rdf:RDF>
      <cc:Work
         rdf:about="">
        <dc:format>image/svg+xml</dc:format>
        <dc:type
           rdf:resource="http://purl.org/dc/dcmitype/StillImage" />
        <dc:title></dc:title>
      </cc:Work>
    </rdf:RDF>
  </metadata>
  <defs
     id="defs6348" />
  <path
     id="path6340"
     d="M 12 0.9296875 C 3.8603704 0.9296875 0.2421875 8.0058594 0.2421875 8.0058594 L 0.046875 8.390625 L 0.2421875 8.7753906 C 0.2421875 8.7753906 3.8847244 15.900391 12 15.900391 C 20.115276 15.900391 23.757813 8.7753906 23.757812 8.7753906 L 23.953125 8.390625 L 23.757812 8.0058594 C 23.757812 8.0058594 20.13963 0.9296875 12 0.9296875 z M 12 2.8007812 C 14.876566 2.8007812 17.199219 5.123434 17.199219 8 C 17.199219 10.876566 14.876566 13.199219 12 13.199219 C 9.123434 13.199219 6.8007814 10.876566 6.8007812 8 C 6.8007812 5.123434 9.123434 2.8007812 12 2.8007812 z M 6.5234375 3.9902344 C 5.6951657 5.1169737 5.1992188 6.5009502 5.1992188 8 C 5.1992188 10.261286 6.3187881 12.267955 8.0273438 13.505859 C 4.3043998 12.139879 2.4294304 9.1551626 1.9960938 8.390625 C 2.3648638 7.7393396 3.7849197 5.4783641 6.5234375 3.9902344 z M 17.476562 3.9902344 C 20.21508 5.4783641 21.635136 7.7393396 22.003906 8.390625 C 21.57057 9.1551626 19.6956 12.139879 15.972656 13.505859 C 17.681212 12.267955 18.800781 10.261286 18.800781 8 C 18.800781 6.5009502 18.304834 5.1169737 17.476562 3.9902344 z M 12 6 C 10.9 6 10 6.9 10 8 C 10 9.1 10.9 10 12 10 C 13.1 10 14 9.1 14 8 C 14 6.9 13.1 6 12 6 z "
     style="color:#000000;font-style:normal;font-variant:normal;font-weight:normal;font-stretch:normal;font-size:medium;line-height:normal;font-family:sans-serif;text-indent:0;text-align:start;text-decoration:none;text-decoration-line:none;text-decoration-style:solid;text-decoration-color:#000000;letter-spacing:normal;word-spacing:normal;text-transform:none;direction:ltr;block-progression:tb;writing-mode:lr-tb;baseline-shift:baseline;text-anchor:start;white-space:normal;clip-rule:nonzero;display:inline;overflow:visible;visibility:visible;opacity:1;isolation:auto;mix-blend-mode:normal;color-interpolation:sRGB;color-interpolation-filters:linearRGB;solid-color:#000000;solid-opacity:1;fill:#000000;fill-opacity:1;fill-rule:evenodd;stroke:none;stroke-width:1.70000005;stroke-linecap:butt;stroke-linejoin:miter;stroke-miterlimit:4;stroke-dasharray:none;stroke-dashoffset:0;stroke-opacity:1;color-rendering:auto;image-rendering:auto;shape-rendering:auto;text-rendering:auto;enable-background:accumulate" />
</svg>
