<?xml version="1.0" encoding="UTF-8" standalone="no"?>
<svg
   xmlns:dc="http://purl.org/dc/elements/1.1/"
   xmlns:cc="http://creativecommons.org/ns#"
   xmlns:rdf="http://www.w3.org/1999/02/22-rdf-syntax-ns#"
   xmlns:svg="http://www.w3.org/2000/svg"
   xmlns="http://www.w3.org/2000/svg"
   version="1.1"
   id="svg4136"
   viewBox="0 0 23 23"
   width="23"
   height="23">
  <metadata
     id="metadata4146">
    <rdf:RDF>
      <cc:Work
         rdf:about="">
        <dc:format>image/svg+xml</dc:format>
        <dc:type
           rdf:resource="http://purl.org/dc/dcmitype/StillImage" />
        <dc:title></dc:title>
      </cc:Work>
    </rdf:RDF>
  </metadata>
  <defs
     id="defs4144" />
  <path
     style="stroke:none;fill:#000000;fill-opacity:1"
     id="path4138"
     d="M 6.9 11.5 C 7.75 11.5 8.43 10.81 8.43 9.97 C 8.43 9.12 7.75 8.43 6.9 8.43 C 6.05 8.43 5.37 9.12 5.37 9.97 C 5.37 10.81 6.05 11.5 6.9 11.5 Z M 6.9 11.5"
     fill-rule="evenodd"
     fill="#dc3e48" />
  <path
     style="fill:#000000;fill-opacity:1"
     id="path4140"
     d="M 18 4 L 18 0 L 5 0 L 5 4 C 0 4 0 9.2 0 9.2 L 0 20 L 5 20 L 5 23 L 18 23 L 18 20 L 23 20 L 23 9.2 C 23 4.6 18 4 18 4 L 18 4 Z M 7 2 L 16 2 L 16 4 L 7 4 L 7 2 L 7 2 Z M 16 21 L 7 21 L 7 17 L 16 17 L 16 21 L 16 21 Z M 21 18 L 18 18 L 18 15 L 5 15 L 5 18 L 2 18 L 2 9.2 C 2 8.69 1.68 6 4.6 6 L 18.4 6 C 18.91 6 21 6.28 21 9.2 L 21 18 L 21 18 Z M 21 18"
     fill-rule="evenodd"
     fill="#dc3e48" />
</svg>
