<?xml version="1.0" encoding="utf-8"?>
<svg height="29" width="28" xmlns:xlink="http://www.w3.org/1999/xlink" xmlns="http://www.w3.org/2000/svg" viewBox="0 0 28 29">
    <path fill-rule="evenodd" d="M 27.16 27.86 C 26.39 26.29 25.01 25.13 23.52 24.24 C 23.01 23.93 22.42 23.72 21.92 23.55 C 20.75 23.17 19.61 23.08 18.3 22.86 C 17.22 22.67 16.38 22.23 15.47 21.62 C 14.99 21.29 14.61 20.85 14.28 20.38 C 14.22 20.28 13.92 19.92 13.95 19.79 C 13.95 19.79 13.74 20.63 14.16 21.82 C 10.32 21.64 6.96 19.52 5.42 16.94 C 2.58 12.19 3.58 6.44 7.36 3.9 C 11.14 1.36 16.91 3.15 19.99 7.74 C 21.93 10.62 22.42 13.97 21.59 16.69 C 21.59 16.71 21.58 16.73 21.57 16.75 C 19.93 15.56 18.44 16.17 18.44 16.17 C 20.08 16 21.38 17.31 21.38 17.31 C 21.57 17.47 21.75 17.66 21.92 17.87 C 21.96 17.92 22 17.97 22.03 18.03 C 22.46 18.61 22.73 19.26 22.85 19.92 C 26.11 15.78 26.65 10.05 23.76 5.6 C 20.08 -0.07 12.24 -1.52 6.25 2.36 C 0.26 6.24 -1.61 13.99 2.07 19.66 C 5.09 24.33 12.18 25.75 16.24 24.47 C 17.78 23.98 23.04 23.52 26.7 27.85 C 26.7 27.85 27.01 28.21 27.19 28.62 C 27.19 28.62 27.24 28.77 27.37 28.7 C 27.41 28.68 27.51 28.56 27.16 27.86 L 27.16 27.86 Z M 19.62 20.2 C 19.62 20.2 19.62 20.2 19.61 20.2 C 19.6 20.2 19.6 20.19 19.59 20.19 C 19.58 20.19 19.57 20.18 19.57 20.18 C 19.56 20.18 19.55 20.18 19.55 20.18 C 19.54 20.18 19.53 20.17 19.51 20.17 C 19.34 20.14 19.17 20.16 19.03 20.25 C 18.71 20.47 18.67 20.96 18.93 21.35 C 19.05 21.52 19.21 21.65 19.38 21.71 C 19.39 21.71 19.39 21.71 19.4 21.72 C 19.4 21.72 19.41 21.72 19.42 21.72 C 19.42 21.73 19.43 21.73 19.44 21.73 C 19.45 21.73 19.45 21.73 19.46 21.73 C 19.47 21.74 19.48 21.74 19.5 21.74 C 19.66 21.78 19.83 21.75 19.98 21.66 C 20.29 21.44 20.34 20.96 20.08 20.57 C 19.96 20.39 19.8 20.27 19.62 20.2 L 19.62 20.2 Z M 21.75 19.31 C 21.48 19.21 21.45 19.52 21.52 19.73 C 21.67 20.21 21.88 20.59 22.02 20.66 C 22.17 20.75 22.33 20.55 22.23 20.06 C 22.18 19.85 22.02 19.41 21.75 19.31 L 21.75 19.31 Z M 21.75 19.31" />
</svg>