<?xml version="1.0" encoding="UTF-8" standalone="no"?>
<!-- Generator: Avocode 2.6.0 - http://avocode.com -->

<svg
   xmlns:dc="http://purl.org/dc/elements/1.1/"
   xmlns:cc="http://creativecommons.org/ns#"
   xmlns:rdf="http://www.w3.org/1999/02/22-rdf-syntax-ns#"
   xmlns:svg="http://www.w3.org/2000/svg"
   xmlns="http://www.w3.org/2000/svg"
   xmlns:sodipodi="http://sodipodi.sourceforge.net/DTD/sodipodi-0.dtd"
   xmlns:inkscape="http://www.inkscape.org/namespaces/inkscape"
   height="28"
   width="28"
   viewBox="0 0 28 28"
   id="svg3336"
   version="1.1"
   inkscape:version="0.91 r13725"
   sodipodi:docname="rub.svg">
  <metadata
     id="metadata3348">
    <rdf:RDF>
      <cc:Work
         rdf:about="">
        <dc:format>image/svg+xml</dc:format>
        <dc:type
           rdf:resource="http://purl.org/dc/dcmitype/StillImage" />
        <dc:title></dc:title>
      </cc:Work>
    </rdf:RDF>
  </metadata>
  <defs
     id="defs3346" />
  <sodipodi:namedview
     pagecolor="#ffffff"
     bordercolor="#666666"
     borderopacity="1"
     objecttolerance="10"
     gridtolerance="10"
     guidetolerance="10"
     inkscape:pageopacity="0"
     inkscape:pageshadow="2"
     inkscape:window-width="1220"
     inkscape:window-height="745"
     id="namedview3344"
     showgrid="false"
     inkscape:zoom="6.4545455"
     inkscape:cx="40.609931"
     inkscape:cy="24.690141"
     inkscape:window-x="-8"
     inkscape:window-y="-8"
     inkscape:window-maximized="1"
     inkscape:current-layer="svg3336" />
  <path
     d="m 6.7421031,1.0508363 0,11.6874997 -1.80664,0 0,3.035156 1.80664,0 0,2.601563 -1.80664,0 0,2.49414 1.80664,0 0,6.666016 3.5058599,0 0,-6.666016 10.60352,0 0,-2.49414 -10.60352,0 0,-2.601563 4.55078,0 c 1.24056,0 2.43946,-0.114909 3.59571,-0.34375 1.16829,-0.228841 2.19856,-0.625325 3.08984,-1.191406 0.90332,-0.578125 1.62598,-1.348958 2.16797,-2.3125 0.54199,-0.963542 0.8125,-2.1790357 0.8125,-3.6484372 0,-1.4573568 -0.36686,-2.7897135 -1.10156,-3.9941406 -0.7347,-1.2044271 -1.7168,-2.0400391 -2.94532,-2.5097657 -1.21647,-0.4817708 -3.01009,-0.7226562 -5.38281,-0.7226562 l -8.2929699,0 z m 3.5058599,2.9257812 4.93164,0 c 0.79492,0 1.53418,0.077799 2.2207,0.234375 0.68653,0.1565756 1.28321,0.4104818 1.78907,0.7597657 0.5179,0.3372396 0.92187,0.7763672 1.21093,1.3183593 0.30111,0.5419922 0.45118,1.2054037 0.45118,1.9882813 0,0.9033203 -0.16114,1.6425785 -0.48633,2.2207032 -0.3252,0.56608 -0.76628,1.018229 -1.32031,1.355468 -0.55404,0.33724 -1.1989,0.572592 -1.9336,0.705079 -0.7347,0.120442 -1.50553,0.179687 -2.3125,0.179687 l -4.55078,0 0,-8.7617185 z"
     id="text3338"
     inkscape:connector-curvature="0" />
</svg>
