<?xml version="1.0" encoding="UTF-8" standalone="no"?>
<!-- Generator: Avocode 2.6.0 - http://avocode.com -->

<svg
   xmlns:dc="http://purl.org/dc/elements/1.1/"
   xmlns:cc="http://creativecommons.org/ns#"
   xmlns:rdf="http://www.w3.org/1999/02/22-rdf-syntax-ns#"
   xmlns:svg="http://www.w3.org/2000/svg"
   xmlns="http://www.w3.org/2000/svg"
   xmlns:sodipodi="http://sodipodi.sourceforge.net/DTD/sodipodi-0.dtd"
   xmlns:inkscape="http://www.inkscape.org/namespaces/inkscape"
   height="25"
   width="25"
   viewBox="0 0 25 25"
   id="svg4136"
   version="1.1"
   inkscape:version="0.91 r13725"
   sodipodi:docname="scale.svg">
  <metadata
     id="metadata4160">
    <rdf:RDF>
      <cc:Work
         rdf:about="">
        <dc:format>image/svg+xml</dc:format>
        <dc:type
           rdf:resource="http://purl.org/dc/dcmitype/StillImage" />
        <dc:title></dc:title>
      </cc:Work>
    </rdf:RDF>
  </metadata>
  <defs
     id="defs4158" />
  <sodipodi:namedview
     pagecolor="#ffffff"
     bordercolor="#666666"
     borderopacity="1"
     objecttolerance="10"
     gridtolerance="10"
     guidetolerance="10"
     inkscape:pageopacity="0"
     inkscape:pageshadow="2"
     inkscape:window-width="1230"
     inkscape:window-height="745"
     id="namedview4156"
     showgrid="false"
     inkscape:zoom="16"
     inkscape:cx="12.716019"
     inkscape:cy="9.7778048"
     inkscape:window-x="-8"
     inkscape:window-y="-8"
     inkscape:window-maximized="1"
     inkscape:current-layer="svg4136" />
  <path
     style="color:#000000;font-style:normal;font-variant:normal;font-weight:normal;font-stretch:normal;font-size:medium;line-height:normal;font-family:sans-serif;text-indent:0;text-align:start;text-decoration:none;text-decoration-line:none;text-decoration-style:solid;text-decoration-color:#000000;letter-spacing:normal;word-spacing:normal;text-transform:none;direction:ltr;block-progression:tb;writing-mode:lr-tb;baseline-shift:baseline;text-anchor:start;white-space:normal;clip-rule:nonzero;display:inline;overflow:visible;visibility:visible;opacity:1;isolation:auto;mix-blend-mode:normal;color-interpolation:sRGB;color-interpolation-filters:linearRGB;solid-color:#000000;solid-opacity:1;fill:#000000;fill-opacity:1;fill-rule:evenodd;stroke:none;stroke-width:1.60000002;stroke-linecap:butt;stroke-linejoin:miter;stroke-miterlimit:4;stroke-dasharray:none;stroke-dashoffset:0;stroke-opacity:1;color-rendering:auto;image-rendering:auto;shape-rendering:auto;text-rendering:auto;enable-background:accumulate"
     d="m 10.472656,4.1601562 0,0.6992188 0,0.2070312 -6.8710935,0 0,1.7167968 1.7851563,0 -3.6250001,5.054688 0,1.529297 0.080078,0.164062 c 0,0 1.3387452,2.882813 4.2402344,2.882812 1.4276503,0 2.5230769,-0.572066 3.2246094,-1.232421 0.3507663,-0.330178 0.6083919,-0.680297 0.7890625,-1.007813 0.180671,-0.327516 0.306641,-0.584083 0.306641,-0.988281 l 0,-1.347656 -0.150391,-0.208985 -3.4746093,-4.845703 3.6953123,0 0,1.431641 1.271485,0 0,11.132812 -3.1210942,0 -0.8496094,0 0,1.699219 0.8496094,0 7.9902342,0 0.84961,0 0,-1.699219 -0.84961,0 -3.169922,0 0,-11.132812 1.333985,0 0,-1.439453 3.615234,0 -3.630859,5.0625 0,1.529297 0.08008,0.164062 c 0,0 1.338745,2.882813 4.240234,2.882812 1.427651,0 2.523077,-0.572066 3.22461,-1.232421 0.350766,-0.330178 0.608391,-0.680297 0.789062,-1.007813 0.180671,-0.327516 0.306641,-0.584083 0.306641,-0.988281 l 0,-1.347656 -0.150391,-0.208985 -3.480469,-4.853515 2.791016,0 0,-1.7011722 -7.785156,0 0,-0.9140626 -4.304688,0 z m 1.400391,1.4003907 1.503906,0 0,1.2539061 -0.931641,0 -0.572265,0 0,-1.2539061 z m -5.7910158,2.9960941 2.3417969,3.267578 -4.6835937,0 2.3417968,-3.267578 z m 12.9999998,0 2.341797,3.267578 -4.683594,0 2.341797,-3.267578 z m -15.4003904,4.86914 4.9980469,0 c -0.099207,0.17419 -0.2553975,0.387176 -0.4707031,0.589844 -0.4484675,0.422144 -1.1146034,0.798828 -2.1269532,0.798828 -1.2043427,0 -1.9933251,-0.829946 -2.4003906,-1.388672 z m 13.0000004,0 4.998047,0 c -0.09921,0.17419 -0.255398,0.387176 -0.470704,0.589844 -0.448467,0.422144 -1.114603,0.798828 -2.126953,0.798828 -1.204342,0 -1.993325,-0.829946 -2.40039,-1.388672 z"
     id="path4138"
     inkscape:connector-curvature="0" />
</svg>
