<svg height="16" width="14" xmlns:xlink="http://www.w3.org/1999/xlink" xmlns="http://www.w3.org/2000/svg" viewBox="0 0 14 16">
    <path d="M 3.41 12.69 L 1.53 12.69 C 1.1 12.69 0.75 12.36 0.75 11.94 L 0.75 5.31 C 0.75 4.89 1.1 4.55 1.53 4.55 L 3.41 4.55 C 3.84 4.55 4.19 4.89 4.19 5.31 L 4.19 11.94 C 4.19 12.36 3.84 12.69 3.41 12.69 Z M 8.21 12.69 L 6.32 12.69 C 5.89 12.69 5.55 12.36 5.55 11.94 L 5.55 0.76 C 5.55 0.34 5.89 0 6.32 0 L 8.21 0 C 8.64 0 8.98 0.34 8.98 0.76 L 8.98 11.94 C 8.98 12.36 8.64 12.69 8.21 12.69 Z M 13.05 12.69 L 11.16 12.69 C 10.73 12.69 10.39 12.36 10.39 11.94 L 10.39 3.28 C 10.39 2.87 10.73 2.53 11.16 2.53 L 13.05 2.53 C 13.47 2.53 13.82 2.87 13.82 3.28 L 13.82 11.94 C 13.82 12.36 13.47 12.69 13.05 12.69 Z M 13.59 16 L 0.75 16 C 0.53 16 0.36 15.62 0.36 15.14 C 0.36 14.67 0.53 14.28 0.75 14.28 L 13.59 14.28 C 13.8 14.28 13.98 14.67 13.98 15.14 C 13.98 15.62 13.8 16 13.59 16 Z M 13.59 16" />
</svg>
