<svg height="18" width="18" xmlns:xlink="http://www.w3.org/1999/xlink" xmlns="http://www.w3.org/2000/svg" viewBox="0 0 18 18">
    <path d="M 9 16.55 C 4.85 16.55 1.45 13.15 1.45 9 C 1.45 4.85 4.85 1.45 9 1.45 C 13.15 1.45 16.55 4.85 16.55 9 C 16.55 13.15 13.15 16.55 9 16.55 M 0 9 C 0 13.95 4.05 18 9 18 C 13.95 18 18 13.95 18 9 C 18 4.05 13.95 0 9 0 C 4.05 0 0 4.05 0 9 Z M 9 14.4 C 11.34 14.4 13.32 12.87 14.13 10.8 L 3.87 10.8 C 4.68 12.87 6.66 14.4 9 14.4 M 6 8.4 C 6.8 8.4 7.5 7.7 7.5 6.9 C 7.5 6.1 6.8 5.4 6 5.4 C 5.2 5.4 4.5 6.1 4.5 6.9 C 4.5 7.7 5.2 8.4 6 8.4 M 11.3 8.4 C 12.1 8.4 12.8 7.7 12.8 6.9 C 12.8 6.1 12.1 5.4 11.3 5.4 C 10.5 5.4 9.8 6.1 9.8 6.9 C 9.8 7.7 10.5 8.4 11.3 8.4" />
</svg>
