<?xml version="1.0" encoding="UTF-8" standalone="no"?>
<!-- Generator: Avocode 2.6.0 - http://avocode.com -->

<svg
   xmlns:dc="http://purl.org/dc/elements/1.1/"
   xmlns:cc="http://creativecommons.org/ns#"
   xmlns:rdf="http://www.w3.org/1999/02/22-rdf-syntax-ns#"
   xmlns:svg="http://www.w3.org/2000/svg"
   xmlns="http://www.w3.org/2000/svg"
   xmlns:sodipodi="http://sodipodi.sourceforge.net/DTD/sodipodi-0.dtd"
   xmlns:inkscape="http://www.inkscape.org/namespaces/inkscape"
   height="25"
   width="25"
   viewBox="0 0 25 25"
   id="svg9171"
   version="1.1"
   inkscape:version="0.91 r13725"
   sodipodi:docname="sound.svg">
  <metadata
     id="metadata9183">
    <rdf:RDF>
      <cc:Work
         rdf:about="">
        <dc:format>image/svg+xml</dc:format>
        <dc:type
           rdf:resource="http://purl.org/dc/dcmitype/StillImage" />
        <dc:title></dc:title>
      </cc:Work>
    </rdf:RDF>
  </metadata>
  <defs
     id="defs9181" />
  <sodipodi:namedview
     pagecolor="#ffffff"
     bordercolor="#666666"
     borderopacity="1"
     objecttolerance="10"
     gridtolerance="10"
     guidetolerance="10"
     inkscape:pageopacity="0"
     inkscape:pageshadow="2"
     inkscape:window-width="1230"
     inkscape:window-height="745"
     id="namedview9179"
     showgrid="false"
     inkscape:zoom="13.882353"
     inkscape:cx="-0.08100464"
     inkscape:cy="8.5"
     inkscape:window-x="-8"
     inkscape:window-y="-8"
     inkscape:window-maximized="1"
     inkscape:current-layer="svg9171" />
  <path
     style="color:#000000;font-style:normal;font-variant:normal;font-weight:normal;font-stretch:normal;font-size:medium;line-height:normal;font-family:sans-serif;text-indent:0;text-align:start;text-decoration:none;text-decoration-line:none;text-decoration-style:solid;text-decoration-color:#000000;letter-spacing:normal;word-spacing:normal;text-transform:none;direction:ltr;block-progression:tb;writing-mode:lr-tb;baseline-shift:baseline;text-anchor:start;white-space:normal;clip-rule:nonzero;display:inline;overflow:visible;visibility:visible;opacity:1;isolation:auto;mix-blend-mode:normal;color-interpolation:sRGB;color-interpolation-filters:linearRGB;solid-color:#000000;solid-opacity:1;fill:#000000;fill-opacity:1;fill-rule:evenodd;stroke:none;stroke-width:1.60000002;stroke-linecap:butt;stroke-linejoin:miter;stroke-miterlimit:4;stroke-dasharray:none;stroke-dashoffset:0;stroke-opacity:1;color-rendering:auto;image-rendering:auto;shape-rendering:auto;text-rendering:auto;enable-background:accumulate"
     d="m 14.978747,2.5901748 -5.771484,4.6132815 -5.8300781,0 0,0.800781 0,9.5507807 5.515625,0 6.0859371,4.544922 0,-19.5097652 z m 3.587891,2.1328125 -1.34961,1.0332031 0.515626,0.6738279 c 0,0 1.685546,2.187508 1.685546,5.7851567 0,1.82152 -0.364295,3.200989 -0.71875,4.11914 -0.354454,0.918151 -0.662109,1.322266 -0.662109,1.322266 l -0.509766,0.68164 1.363282,1.015625 0.507812,-0.68164 c 0,0 0.466173,-0.637214 0.886719,-1.726563 0.420546,-1.089349 0.832031,-2.681989 0.832031,-4.730468 0,-4.1423517 -2.035156,-6.8183596 -2.035156,-6.8183596 L 18.566638,4.7229873 Z m -5.189453,1.1953125 0,12.9902342 -3.9531251,-2.955078 -4.4453125,0 0,-7.1484377 4.7890625,0 3.6093751,-2.8867185 z m 3.003906,2.1503905 -1.388672,0.982422 0.492188,0.693359 c 0,0 0.853515,1.2162557 0.853515,3.0097657 0,1.80484 -0.853515,3.007814 -0.853515,3.007812 l -0.492188,0.691407 1.384766,0.986328 0.49414,-0.693359 c 0,0 1.166016,-1.637028 1.166016,-3.992188 0,-2.34649 -1.166016,-3.9902337 -1.166016,-3.9902337 l -0.490234,-0.695313 z"
     id="path9173"
     inkscape:connector-curvature="0" />
</svg>
