<?xml version="1.0" encoding="UTF-8" standalone="no"?>
<!-- Generator: Avocode 2.6.0 - http://avocode.com -->

<svg
   xmlns:dc="http://purl.org/dc/elements/1.1/"
   xmlns:cc="http://creativecommons.org/ns#"
   xmlns:rdf="http://www.w3.org/1999/02/22-rdf-syntax-ns#"
   xmlns:svg="http://www.w3.org/2000/svg"
   xmlns="http://www.w3.org/2000/svg"
   xmlns:sodipodi="http://sodipodi.sourceforge.net/DTD/sodipodi-0.dtd"
   xmlns:inkscape="http://www.inkscape.org/namespaces/inkscape"
   height="25"
   width="25"
   viewBox="0 0 25 25"
   id="svg8650"
   version="1.1"
   inkscape:version="0.91 r13725"
   sodipodi:docname="thumb-up.svg">
  <metadata
     id="metadata8658">
    <rdf:RDF>
      <cc:Work
         rdf:about="">
        <dc:format>image/svg+xml</dc:format>
        <dc:type
           rdf:resource="http://purl.org/dc/dcmitype/StillImage" />
        <dc:title></dc:title>
      </cc:Work>
    </rdf:RDF>
  </metadata>
  <defs
     id="defs8656" />
  <sodipodi:namedview
     pagecolor="#ffffff"
     bordercolor="#666666"
     borderopacity="1"
     objecttolerance="10"
     gridtolerance="10"
     guidetolerance="10"
     inkscape:pageopacity="0"
     inkscape:pageshadow="2"
     inkscape:window-width="1230"
     inkscape:window-height="745"
     id="namedview8654"
     showgrid="false"
     inkscape:zoom="15.170655"
     inkscape:cx="23.355492"
     inkscape:cy="8.6774857"
     inkscape:window-x="-8"
     inkscape:window-y="-8"
     inkscape:window-maximized="1"
     inkscape:current-layer="svg8650" />
  <path
     style="color:#000000;font-style:normal;font-variant:normal;font-weight:normal;font-stretch:normal;font-size:medium;line-height:normal;font-family:sans-serif;text-indent:0;text-align:start;text-decoration:none;text-decoration-line:none;text-decoration-style:solid;text-decoration-color:#000000;letter-spacing:normal;word-spacing:normal;text-transform:none;direction:ltr;block-progression:tb;writing-mode:lr-tb;baseline-shift:baseline;text-anchor:start;white-space:normal;clip-rule:nonzero;display:inline;overflow:visible;visibility:visible;opacity:1;isolation:auto;mix-blend-mode:normal;color-interpolation:sRGB;color-interpolation-filters:linearRGB;solid-color:#000000;solid-opacity:1;fill:#000000;fill-opacity:1;fill-rule:evenodd;stroke:none;stroke-width:1.5;stroke-linecap:round;stroke-linejoin:round;stroke-miterlimit:4;stroke-dasharray:none;stroke-dashoffset:0;stroke-opacity:1;color-rendering:auto;image-rendering:auto;shape-rendering:auto;text-rendering:auto;enable-background:accumulate"
     d="m 12.09957,1.9975821 c -0.40625,0 -0.748711,0.231792 -0.939453,0.453125 -0.190743,0.221333 -0.292903,0.444583 -0.369141,0.648437 -0.152476,0.407709 -0.195312,0.78125 -0.195312,0.78125 l 0.0059,-0.03516 c -0.13384,0.745676 -0.277501,1.316978 -0.8750004,2.53125 l -0.00195,0.0039 C 9.44294,6.9599811 9.2005906,7.1318431 8.773398,7.4096911 8.3462054,7.6875401 7.7231085,8.0324951 7.0937105,8.7534411 l 0,0.0019 C 6.8558,9.0289921 6.6917296,9.3273331 6.4745699,9.6811761 6.36599,9.8580971 6.2646669,10.030116 6.1855074,10.163598 c -0.030459,0.05136 -0.046398,0.08212 -0.064453,0.111328 0.076475,-0.08704 -0.053128,0.01088 -0.3574219,0.06055 -0.3258556,0.05318 -0.7687064,0.09626 -1.232422,0.191403 -0.4637156,0.09514 -0.9652757,0.236174 -1.4082031,0.583984 -0.4429274,0.34781 -0.7636719,0.955392 -0.7636719,1.636719 l 0,6.939453 c -1.778e-4,0.303481 0.1825351,0.577164 0.4628906,0.693359 l 2.7695313,1.150391 c 0.091056,0.03755 0.1886157,0.05679 0.2871093,0.05664 0.3844239,0 0.8755713,0.334882 1.8105469,0.673828 4.468e-4,1.64e-4 0.00151,-1.65e-4 0.00195,0 0.0021,7.62e-4 0.0018,0.0012 0.00391,0.002 1.3906569,0.510872 4.0533704,0.773437 7.0332034,0.773437 l 2.111328,0 c 0.714785,0 1.291389,-0.347232 1.675781,-0.738281 0.212785,-0.200965 0.417855,-0.539406 0.490234,-0.957031 0.05214,-0.263686 0.03362,-0.228374 0.03125,-0.382812 0.0088,-0.277184 -0.13123,-0.446971 -0.199218,-0.677735 1.025643,-0.170652 1.960937,-0.949461 1.960937,-2.183594 0,-0.477392 -0.251595,-0.849241 -0.503906,-1.205078 0.565681,-0.397684 0.998477,-0.9613 1.033203,-1.699219 0.02794,-0.59379 -0.190047,-1.145333 -0.541016,-1.576171 0.382534,-0.396088 0.647969,-0.9193 0.669922,-1.507813 0.05443,-1.203868 -0.783498,-2.3841909 -2.048828,-2.4316409 l -5.265626,-0.585983 c 0.357602,-0.870272 0.787109,-2.18135 0.787109,-4.173828 0,-1.126466 -0.445747,-1.966659 -1.064453,-2.410156 -0.618706,-0.443498 -1.296209,-0.509766 -1.765624,-0.509766 z m 0.142577,1.537109 c 0.26485,0.01807 0.555913,0.05368 0.748047,0.191407 0.228794,0.164002 0.439454,0.407872 0.439453,1.191406 0,2.67662 -1.011718,4.4375 -1.011718,4.4375 -0.267285,0.468431 0.03236,1.0574209 0.568359,1.1171869 l 6.310547,0.701172 c 0.01818,0.002 0.03642,0.0033 0.05469,0.0039 0.333094,0.01249 0.632648,0.370662 0.609374,0.865235 l -0.002,0.0078 c -0.01639,0.464423 -0.354784,0.766441 -0.722656,0.748047 -0.722458,0 -0.983118,1.381521 -0.07422,1.498047 0.370985,0.01855 0.689929,0.359535 0.667969,0.826172 -0.02237,0.475397 -0.354473,0.774269 -0.722656,0.755859 l -0.0059,0 -0.47461,-0.01953 -0.0059,0 c -0.97335,-0.01817 -1.03932,1.427495 -0.06836,1.498047 0.44695,0.02235 0.746094,0.27847 0.746094,0.740234 0,0.646505 -0.400928,0.861888 -0.802734,0.841797 l -0.01172,-0.002 c 0,0 -0.935313,-0.0293 -0.945312,-0.0293 -0.843494,-0.0015 -1.046962,1.17517 -0.251954,1.457032 0.04199,0.015 0.107994,0.04852 0.154297,0.107421 0.0463,0.0589 0.107605,0.150942 0.09766,0.439453 -1.43e-4,0.0085 -1.43e-4,0.01693 0,0.02539 0,-0.136667 -0.04866,0.337049 -0.0059,0.123047 -0.0014,0.0078 -0.0027,0.01561 -0.0039,0.02344 -0.02778,0.166703 -0.03564,0.12935 -0.03516,0.128906 -0.01205,0.01135 -0.02372,0.02309 -0.03499,0.03521 -0.175917,0.1822 -0.363834,0.289062 -0.61914,0.289062 l -2.111328,0 c -2.877099,0 -5.6289931,-0.3555 -6.5195311,-0.683593 l -0.00391,0 C 7.4858791,20.593114 6.8732146,20.087426 5.8788667,20.087426 l 0.2871094,0.05664 -2.3066406,-0.957031 0,-6.439453 c 0,-0.298673 0.053709,-0.348904 0.1914062,-0.457031 0.1376976,-0.108128 0.4224657,-0.221311 0.78125,-0.294922 0.3587844,-0.07361 0.7740587,-0.114437 1.1738282,-0.179688 0.3997695,-0.06525 0.8160768,-0.08 1.2265625,-0.511718 0.051078,-0.05393 0.093862,-0.115142 0.1269531,-0.181641 -0.054287,0.108574 0.040019,-0.06848 0.1152344,-0.195313 0.075215,-0.126831 0.1753767,-0.291608 0.2792968,-0.460937 0.2074467,-0.338016 0.5072594,-0.7663309 0.4707032,-0.7246089 0.470602,-0.539054 0.87188,-0.754021 1.3671875,-1.076172 0.4943626,-0.321537 1.0722316,-0.789559 1.4804686,-1.626953 l 0,-0.002 c 0.64161,-1.304359 0.859786,-2.111947 1.005859,-2.925785 0.0023,-0.01232 0.0042,-0.02469 0.0059,-0.03711 0,0 0.03576,-0.241928 0.113282,-0.449219 0.01783,-0.04768 0.02706,-0.05607 0.04492,-0.08984 z"
     id="path8652"
     inkscape:connector-curvature="0"
     sodipodi:nodetypes="sssccccsccsscsssscccccccssccccscsccccssscssccccccccscccccscccccccccccsscccccssssccsscsccccsc" />
</svg>
