<?xml version="1.0" encoding="UTF-8" standalone="no"?>
<!-- Generator: Avocode 2.6.0 - http://avocode.com -->

<svg
   xmlns:dc="http://purl.org/dc/elements/1.1/"
   xmlns:cc="http://creativecommons.org/ns#"
   xmlns:rdf="http://www.w3.org/1999/02/22-rdf-syntax-ns#"
   xmlns:svg="http://www.w3.org/2000/svg"
   xmlns="http://www.w3.org/2000/svg"
   xmlns:sodipodi="http://sodipodi.sourceforge.net/DTD/sodipodi-0.dtd"
   xmlns:inkscape="http://www.inkscape.org/namespaces/inkscape"
   height="25"
   width="25"
   viewBox="0 0 25 25"
   id="svg8100"
   version="1.1"
   inkscape:version="0.91 r13725"
   sodipodi:docname="trash.svg">
  <metadata
     id="metadata8108">
    <rdf:RDF>
      <cc:Work
         rdf:about="">
        <dc:format>image/svg+xml</dc:format>
        <dc:type
           rdf:resource="http://purl.org/dc/dcmitype/StillImage" />
        <dc:title></dc:title>
      </cc:Work>
    </rdf:RDF>
  </metadata>
  <defs
     id="defs8106" />
  <sodipodi:namedview
     pagecolor="#ffffff"
     bordercolor="#666666"
     borderopacity="1"
     objecttolerance="10"
     gridtolerance="10"
     guidetolerance="10"
     inkscape:pageopacity="0"
     inkscape:pageshadow="2"
     inkscape:window-width="1230"
     inkscape:window-height="745"
     id="namedview8104"
     showgrid="false"
     inkscape:zoom="11.8"
     inkscape:cx="8.5"
     inkscape:cy="10"
     inkscape:window-x="-8"
     inkscape:window-y="-8"
     inkscape:window-maximized="1"
     inkscape:current-layer="svg8100" />
  <path
     d="m 11.376271,2.7118644 c -0.44,0 -0.9,0.15 -1.22,0.47 -0.3199998,0.31 -0.4799998,0.76 -0.4799998,1.2 l 0,0.83 -5.1,0 0,1.67 0.85,0 0,13.3299996 c 0,1.37 1.15,2.5 2.55,2.5 l 10.1999998,0 c 1.4,0 2.55,-1.13 2.55,-2.5 l 0,-13.3299996 0.85,0 0,-1.67 -5.1,0 0,-0.83 c 0,-0.44 -0.16,-0.89 -0.48,-1.2 -0.32,-0.32 -0.78,-0.47 -1.22,-0.47 l -3.4,0 0,0 z m 0,1.67 3.4,0 0,0.83 -3.4,0 0,-0.83 0,0 z m -4.2499998,2.5 11.8999998,0 0,13.3299996 c 0,0.46 -0.38,0.83 -0.85,0.83 l -10.1999998,0 c -0.47,0 -0.85,-0.37 -0.85,-0.83 l 0,-13.3299996 0,0 z m 1.7,2.5 0,9.1599996 1.6999998,0 0,-9.1599996 -1.6999998,0 0,0 z m 3.3999998,0 0,9.1599996 1.7,0 0,-9.1599996 -1.7,0 0,0 z m 3.4,0 0,9.1599996 1.7,0 0,-9.1599996 -1.7,0 0,0 z m 0,0"
     id="path8102"
     style="fill:#000000;fill-opacity:1;fill-rule:evenodd"
     inkscape:connector-curvature="0" />
</svg>
