<svg height="15" width="18" xmlns:xlink="http://www.w3.org/1999/xlink" xmlns="http://www.w3.org/2000/svg" viewBox="0 0 18 15">
    <path d="M 17.8 2.03 C 17.16 2.31 16.47 2.5 15.75 2.59 C 16.49 2.15 17.05 1.46 17.32 0.64 C 16.63 1.04 15.86 1.34 15.04 1.5 C 14.39 0.81 13.46 0.38 12.43 0.38 C 10.45 0.38 8.84 1.96 8.84 3.9 C 8.84 4.18 8.87 4.45 8.94 4.7 C 5.96 4.56 3.32 3.16 1.55 1.03 C 1.24 1.55 1.06 2.15 1.06 2.8 C 1.06 4.02 1.7 5.09 2.66 5.72 C 2.07 5.7 1.52 5.54 1.03 5.28 L 1.03 5.33 C 1.03 7.03 2.27 8.45 3.91 8.77 C 3.61 8.85 3.29 8.9 2.96 8.9 C 2.73 8.9 2.51 8.88 2.29 8.83 C 2.75 10.23 4.07 11.25 5.64 11.28 C 4.41 12.22 2.87 12.78 1.19 12.78 C 0.9 12.78 0.61 12.76 0.33 12.73 C 1.92 13.73 3.8 14.31 5.83 14.31 C 12.42 14.31 16.02 8.95 16.02 4.31 L 16.01 3.85 C 16.72 3.36 17.32 2.74 17.8 2.03 L 17.8 2.03 Z M 17.8 2.03" />
</svg>
