<svg height="11" width="18" xmlns:xlink="http://www.w3.org/1999/xlink" xmlns="http://www.w3.org/2000/svg" viewBox="0 0 18 11">
    <path d="M 15.89 4.54 C 16.13 4.23 16.33 3.98 16.48 3.79 C 17.53 2.43 17.98 1.56 17.84 1.18 L 17.79 1.09 C 17.75 1.04 17.66 0.99 17.5 0.94 C 17.35 0.9 17.16 0.89 16.92 0.92 L 14.31 0.94 C 14.25 0.93 14.18 0.93 14.12 0.94 C 14.06 0.95 14.02 0.96 14.01 0.97 C 13.99 0.98 13.97 0.98 13.96 0.99 L 13.92 1.02 C 13.89 1.04 13.86 1.07 13.82 1.11 C 13.79 1.16 13.76 1.21 13.73 1.27 C 13.45 1.98 13.12 2.65 12.76 3.26 C 12.54 3.63 12.33 3.95 12.14 4.22 C 11.96 4.49 11.8 4.69 11.67 4.81 C 11.54 4.94 11.43 5.04 11.33 5.12 C 11.22 5.2 11.14 5.23 11.09 5.22 C 11.04 5.2 10.98 5.19 10.94 5.18 C 10.85 5.13 10.78 5.05 10.73 4.96 C 10.68 4.87 10.64 4.76 10.63 4.62 C 10.61 4.48 10.6 4.36 10.59 4.26 C 10.59 4.16 10.59 4.01 10.6 3.83 C 10.61 3.65 10.61 3.52 10.61 3.46 C 10.61 3.23 10.61 2.99 10.62 2.73 C 10.63 2.46 10.64 2.25 10.64 2.1 C 10.65 1.95 10.65 1.78 10.65 1.61 C 10.65 1.44 10.64 1.31 10.62 1.21 C 10.6 1.11 10.57 1.02 10.53 0.92 C 10.48 0.83 10.42 0.76 10.34 0.71 C 10.26 0.66 10.16 0.62 10.04 0.59 C 9.71 0.52 9.31 0.48 8.81 0.48 C 7.68 0.46 6.96 0.54 6.64 0.69 C 6.51 0.75 6.4 0.84 6.29 0.96 C 6.18 1.09 6.17 1.16 6.25 1.17 C 6.61 1.22 6.87 1.35 7.02 1.55 L 7.07 1.66 C 7.12 1.73 7.16 1.87 7.2 2.07 C 7.24 2.26 7.27 2.48 7.28 2.71 C 7.31 3.14 7.31 3.51 7.28 3.82 C 7.25 4.13 7.22 4.37 7.2 4.54 C 7.17 4.71 7.13 4.85 7.07 4.96 C 7.02 5.07 6.98 5.13 6.96 5.15 C 6.95 5.18 6.93 5.19 6.92 5.2 C 6.84 5.23 6.76 5.24 6.67 5.24 C 6.59 5.24 6.49 5.2 6.37 5.12 C 6.24 5.04 6.12 4.92 5.99 4.78 C 5.86 4.63 5.71 4.43 5.55 4.17 C 5.38 3.91 5.21 3.6 5.04 3.25 L 4.89 2.99 C 4.8 2.82 4.68 2.58 4.52 2.26 C 4.36 1.95 4.22 1.64 4.1 1.35 C 4.05 1.22 3.98 1.13 3.88 1.06 L 3.84 1.04 C 3.81 1.01 3.76 0.99 3.69 0.96 C 3.63 0.93 3.56 0.91 3.49 0.9 L 1 0.92 C 0.74 0.92 0.57 0.98 0.48 1.09 L 0.44 1.14 C 0.42 1.17 0.41 1.22 0.41 1.28 C 0.41 1.35 0.43 1.43 0.47 1.52 C 0.83 2.36 1.23 3.16 1.65 3.94 C 2.08 4.71 2.45 5.34 2.77 5.81 C 3.08 6.28 3.4 6.73 3.73 7.15 C 4.06 7.57 4.27 7.84 4.38 7.96 C 4.49 8.08 4.57 8.17 4.63 8.22 L 4.86 8.44 C 5 8.58 5.22 8.75 5.5 8.95 C 5.78 9.15 6.09 9.34 6.43 9.53 C 6.78 9.73 7.17 9.88 7.63 10 C 8.08 10.13 8.52 10.17 8.95 10.15 L 10 10.15 C 10.21 10.13 10.37 10.07 10.48 9.96 L 10.52 9.91 C 10.54 9.88 10.56 9.82 10.59 9.75 C 10.61 9.67 10.62 9.59 10.62 9.5 C 10.61 9.25 10.63 9.02 10.68 8.82 C 10.72 8.61 10.77 8.46 10.83 8.35 C 10.89 8.25 10.95 8.16 11.03 8.09 C 11.1 8.02 11.15 7.98 11.18 7.96 C 11.21 7.95 11.24 7.94 11.25 7.93 C 11.4 7.88 11.57 7.93 11.77 8.07 C 11.96 8.21 12.15 8.38 12.32 8.58 C 12.49 8.79 12.7 9.02 12.94 9.27 C 13.19 9.53 13.4 9.72 13.58 9.84 L 13.76 9.95 C 13.88 10.02 14.04 10.08 14.23 10.14 C 14.43 10.2 14.6 10.22 14.74 10.19 L 17.07 10.15 C 17.3 10.15 17.48 10.11 17.6 10.04 C 17.73 9.97 17.81 9.88 17.83 9.8 C 17.86 9.71 17.86 9.61 17.84 9.49 C 17.81 9.38 17.79 9.3 17.77 9.26 C 17.75 9.22 17.73 9.18 17.71 9.15 C 17.41 8.62 16.83 7.96 15.98 7.19 L 15.96 7.17 L 15.95 7.16 L 15.94 7.15 L 15.93 7.15 C 15.54 6.79 15.3 6.55 15.2 6.42 C 15.01 6.19 14.97 5.95 15.07 5.7 C 15.14 5.52 15.41 5.13 15.89 4.54 L 15.89 4.54 Z M 15.89 4.54" />
</svg>
