<?xml version="1.0" encoding="UTF-8" standalone="no"?>
<svg
   xmlns:dc="http://purl.org/dc/elements/1.1/"
   xmlns:cc="http://creativecommons.org/ns#"
   xmlns:rdf="http://www.w3.org/1999/02/22-rdf-syntax-ns#"
   xmlns:svg="http://www.w3.org/2000/svg"
   xmlns="http://www.w3.org/2000/svg"
   version="1.1"
   id="svg4136"
   viewBox="0 0 24 24"
   width="24"
   height="24">
  <metadata
     id="metadata4144">
    <rdf:RDF>
      <cc:Work
         rdf:about="">
        <dc:format>image/svg+xml</dc:format>
        <dc:type
           rdf:resource="http://purl.org/dc/dcmitype/StillImage" />
        <dc:title></dc:title>
      </cc:Work>
    </rdf:RDF>
  </metadata>
  <defs
     id="defs4142" />
  <path
     style="fill:#000000;fill-opacity:1"
     id="path4138"
     d="M 16.59 0 C 12.5 0 9.21 3.3 9.21 7.38 C 9.21 7.6 9.24 7.9 9.27 8.16 L 1.36 16.07 C -0.45 17.89 -0.45 20.8 1.36 22.62 C 3.18 24.43 6.09 24.43 7.91 22.62 L 15.81 14.71 C 16.08 14.74 16.38 14.77 16.59 14.77 C 20.68 14.77 23.98 11.47 23.98 7.38 C 23.98 6.12 23.65 4.95 23.11 3.98 L 22.54 2.91 L 21.67 3.78 L 17.69 7.73 L 16.25 6.29 L 20.2 2.31 L 21.07 1.44 L 20 0.86 C 19.02 0.33 17.86 0 16.59 0 L 16.59 0 Z M 16.59 1.85 C 17.04 1.85 17.38 2.04 17.77 2.14 L 14.29 5.62 L 13.62 6.29 L 14.29 6.92 L 17.05 9.69 L 17.69 10.36 L 18.35 9.69 L 21.84 6.2 C 21.94 6.6 22.13 6.94 22.13 7.38 C 22.13 10.5 19.7 12.92 16.59 12.92 C 16.22 12.92 15.93 12.92 15.7 12.86 L 15.21 12.72 L 14.83 13.1 L 6.61 21.32 C 5.48 22.45 3.8 22.45 2.66 21.32 L 2.63 21.29 C 1.52 20.15 1.53 18.49 2.66 17.37 L 10.88 9.14 L 11.26 8.77 L 11.11 8.28 C 11.06 8.05 11.05 7.75 11.05 7.39 C 11.05 4.27 13.48 1.85 16.59 1.85 L 16.59 1.85 Z M 16.59 1.85"
     fill-rule="evenodd"
     fill="#dc3e48" />
</svg>
