<svg width="22" height="18" viewBox="0 0 22 18" fill="none" xmlns="http://www.w3.org/2000/svg">
<path d="M14.667 0.75H0.916992V12.6667H14.667V0.75Z" stroke="white" stroke-linecap="round" stroke-linejoin="round"/>
<path d="M14.667 5.33325H18.3337L21.0837 8.08325V12.6666H14.667V5.33325Z" stroke="white" stroke-linecap="round" stroke-linejoin="round"/>
<path d="M5.04167 17.2501C6.30732 17.2501 7.33333 16.2241 7.33333 14.9584C7.33333 13.6928 6.30732 12.6667 5.04167 12.6667C3.77601 12.6667 2.75 13.6928 2.75 14.9584C2.75 16.2241 3.77601 17.2501 5.04167 17.2501Z" stroke="white" stroke-linecap="round" stroke-linejoin="round"/>
<path d="M16.9587 17.2501C18.2243 17.2501 19.2503 16.2241 19.2503 14.9584C19.2503 13.6928 18.2243 12.6667 16.9587 12.6667C15.693 12.6667 14.667 13.6928 14.667 14.9584C14.667 16.2241 15.693 17.2501 16.9587 17.2501Z" stroke="white" stroke-linecap="round" stroke-linejoin="round"/>
</svg>
