<svg width="20" height="20" viewBox="0 0 20 20" fill="none" xmlns="http://www.w3.org/2000/svg">
<path d="M17.3332 10V19.1667H2.6665V10" stroke="white" stroke-linecap="round" stroke-linejoin="round"/>
<path d="M19.1668 5.41669H0.833496V10H19.1668V5.41669Z" stroke="white" stroke-linecap="round" stroke-linejoin="round"/>
<path d="M10 19.1667V5.41669" stroke="white" stroke-linecap="round" stroke-linejoin="round"/>
<path d="M10.0002 5.41665H5.87516C5.26737 5.41665 4.68448 5.1752 4.25471 4.74543C3.82494 4.31566 3.5835 3.73277 3.5835 3.12498C3.5835 2.51719 3.82494 1.9343 4.25471 1.50453C4.68448 1.07476 5.26737 0.833313 5.87516 0.833313C9.0835 0.833313 10.0002 5.41665 10.0002 5.41665Z" stroke="white" stroke-linecap="round" stroke-linejoin="round"/>
<path d="M10 5.41665H14.125C14.7328 5.41665 15.3157 5.1752 15.7455 4.74543C16.1752 4.31566 16.4167 3.73277 16.4167 3.12498C16.4167 2.51719 16.1752 1.9343 15.7455 1.50453C15.3157 1.07476 14.7328 0.833313 14.125 0.833313C10.9167 0.833313 10 5.41665 10 5.41665Z" stroke="white" stroke-linecap="round" stroke-linejoin="round"/>
</svg>
