<svg id="ogo-logo" xmlns="http://www.w3.org/2000/svg" width="150" height="50" viewBox="0 0 150 50"><defs><style>.cls-1{fill:#c9004b;}.cls-2{fill:#e8004c;}.cls-3{fill:#ff6261;}.cls-4{fill:#a5002d;}.cls-5{fill:#ff849a;}.cls-6{fill:#950017;}.cls-7{fill:#ef2a3b;}</style></defs><title>ogo-logo</title><polygon class="cls-1" points="25 37.5 37.5 37.5 37.5 50 25 50 25 37.5"/><polygon class="cls-2" points="25 25 37.5 25 37.5 37.5 25 37.5 25 25"/><polygon class="cls-3" points="25 12.5 37.5 12.5 37.5 25 25 25 25 12.5"/><polygon class="cls-4" points="12.5 12.5 25 12.5 25 25 12.5 25 12.5 12.5"/><polygon class="cls-5" points="0 12.5 12.5 12.5 12.5 25 0 25 0 12.5"/><polygon class="cls-6" points="12.5 37.5 25 37.5 25 50 12.5 50 12.5 37.5"/><polygon class="cls-7" points="0 25 12.5 25 12.5 37.5 0 37.5 0 25"/><polygon class="cls-3" points="0 37.5 12.5 37.5 12.5 50 0 50 0 37.5"/><polygon class="cls-5" points="50 12.5 62.5 12.5 62.5 25 50 25 50 12.5"/><polygon class="cls-7" points="50 25 62.5 25 62.5 37.5 50 37.5 50 25"/><polygon class="cls-2" points="62.5 12.5 75 12.5 75 25 62.5 25 62.5 12.5"/><polygon class="cls-4" points="50 37.5 62.5 37.5 62.5 50 50 50 50 37.5"/><polygon class="cls-1" points="150 37.5 137.5 37.5 137.5 50 150 50 150 37.5"/><polygon class="cls-5" points="137.5 0 150 0 150 12.5 137.5 12.5 137.5 0"/><polygon class="cls-7" points="137.5 12.5 150 12.5 150 25 137.5 25 137.5 12.5"/><polygon class="cls-3" points="112.5 37.5 125 37.5 125 50 112.5 50 112.5 37.5"/><polygon class="cls-6" points="112.5 25 125 25 125 37.5 112.5 37.5 112.5 25"/><polygon class="cls-1" points="112.5 12.5 125 12.5 125 25 112.5 25 112.5 12.5"/><polygon class="cls-7" points="100 12.5 112.5 12.5 112.5 25 100 25 100 12.5"/><polygon class="cls-3" points="87.5 12.5 100 12.5 100 25 87.5 25 87.5 12.5"/><polygon class="cls-4" points="100 37.5 112.5 37.5 112.5 50 100 50 100 37.5"/><polygon class="cls-2" points="87.5 25 100 25 100 37.5 87.5 37.5 87.5 25"/><polygon class="cls-5" points="87.5 37.5 100 37.5 100 50 87.5 50 87.5 37.5"/></svg>