<?xml version="1.0" encoding="UTF-8"?>
<!DOCTYPE svg PUBLIC "-//W3C//DTD SVG 1.1//EN" "http://www.w3.org/Graphics/SVG/1.1/DTD/svg11.dtd">
<!-- Creator: CorelDRAW 2019 (64-Bit) -->
<svg xmlns="http://www.w3.org/2000/svg" xml:space="preserve" width="150px" height="50px" version="1.1" style="shape-rendering:geometricPrecision; text-rendering:geometricPrecision; image-rendering:optimizeQuality; fill-rule:evenodd; clip-rule:evenodd"
viewBox="0 0 15000 5000"
 xmlns:xlink="http://www.w3.org/1999/xlink"
 xmlns:xodm="http://www.corel.com/coreldraw/odm/2003">
 <defs>
  <style type="text/css">
   <![CDATA[
    .fil9 {fill:#E8F7FB}
    .fil10 {fill:#F5FDFF}
    .fil5 {fill:#97273E;fill-rule:nonzero}
    .fil3 {fill:#A82837;fill-rule:nonzero}
    .fil12 {fill:#ACDDE3;fill-rule:nonzero}
    .fil0 {fill:#CB2451;fill-rule:nonzero}
    .fil1 {fill:#E42652;fill-rule:nonzero}
    .fil6 {fill:#E73A47;fill-rule:nonzero}
    .fil11 {fill:#E8F7FB;fill-rule:nonzero}
    .fil2 {fill:#EC6468;fill-rule:nonzero}
    .fil4 {fill:#EF809C;fill-rule:nonzero}
    .fil7 {fill:#EF839D;fill-rule:nonzero}
    .fil8 {fill:#F5FDFF;fill-rule:nonzero}
   ]]>
  </style>
 </defs>
 <g id="Слой_x0020_1">
  <metadata id="CorelCorpID_0Corel-Layer"/>
  <g id="_2655853913600">
   <polygon class="fil0" points="2500,3749 3750,3749 3750,4997 2500,4997 "/>
   <polygon class="fil1" points="2500,2500 3750,2500 3750,3749 2500,3749 "/>
   <polygon class="fil2" points="2500,1251 3750,1251 3750,2500 2500,2500 "/>
   <polygon class="fil3" points="1250,1251 2500,1251 2500,2500 1250,2500 "/>
   <polygon class="fil4" points="0,1251 1250,1251 1250,2500 0,2500 "/>
   <polygon class="fil5" points="1250,3749 2500,3749 2500,4998 1250,4998 "/>
   <polygon class="fil6" points="0,2500 1250,2500 1250,3749 0,3749 "/>
   <polygon class="fil2" points="0,3749 1250,3749 1250,4998 0,4998 "/>
   <polygon class="fil7" points="5000,1251 6250,1251 6250,2500 5000,2500 "/>
   <polygon class="fil6" points="5000,2500 6250,2500 6250,3749 5000,3749 "/>
   <polygon class="fil1" points="6250,1251 7500,1251 7500,2500 6250,2500 "/>
   <polygon class="fil3" points="5000,3749 6250,3749 6250,4998 5000,4998 "/>
   <polygon class="fil0" points="15000,3749 13750,3749 13750,4997 15000,4997 "/>
   <polygon class="fil7" points="13750,2 15000,2 15000,1251 13750,1251 "/>
   <polygon class="fil6" points="13750,1251 15000,1251 15000,2500 13750,2500 "/>
   <polygon class="fil2" points="11250,3749 12500,3749 12500,4997 11250,4997 "/>
   <polygon class="fil5" points="11250,2500 12500,2500 12500,3749 11250,3749 "/>
   <polygon class="fil0" points="11250,1251 12500,1251 12500,2500 11250,2500 "/>
   <polygon class="fil6" points="10000,1251 11250,1251 11250,2500 10000,2500 "/>
   <polygon class="fil2" points="8750,1251 10000,1251 10000,2500 8750,2500 "/>
   <polygon class="fil3" points="10000,3749 11250,3749 11250,4998 10000,4998 "/>
   <polygon class="fil1" points="8750,2500 10000,2500 10000,3749 8750,3749 "/>
   <polygon class="fil7" points="8750,3749 10000,3749 10000,4998 8750,4998 "/>
  </g>
  <path class="fil8" d="M3393 3041c-19,24 -54,27 -78,8 -23,-19 -27,-53 -8,-77 71,-89 139,-159 219,-209 65,-41 137,-67 224,-77l0 111c-64,9 -117,30 -166,60 -67,42 -127,105 -191,184zm-3393 -244l0 -111c87,10 159,36 224,77 80,50 148,120 219,209 19,24 15,58 -9,77 -23,19 -58,16 -77,-8 -64,-79 -124,-142 -192,-184 -48,-30 -101,-51 -165,-60z"/>
  <path class="fil9" d="M238 2776c170,577 183,1124 0,1635 1091,403 2182,401 3274,0 -253,-564 -201,-1105 0,-1636 -1151,924 -2208,888 -3274,1z"/>
  <path class="fil10" d="M238 2776c100,340 146,669 129,987 366,231 907,377 1512,377 581,0 1104,-135 1469,-351 -29,-344 38,-681 164,-1014 -1007,625 -2050,721 -3274,1z"/>
  <path class="fil11" d="M357 4277c19,-24 54,-27 77,-8 24,19 28,54 9,77 -71,89 -139,159 -219,209 -65,41 -137,67 -224,77l0 -111c64,-9 117,-29 165,-60 68,-42 128,-104 192,-184zm3393 244l0 111c-87,-10 -159,-36 -224,-77 -80,-50 -148,-120 -219,-209 -19,-23 -15,-58 8,-77 24,-19 59,-16 78,8 64,80 124,142 191,184 49,31 102,51 166,60z"/>
  <path class="fil12" d="M408 3004c-4,-10 -18,-6 -16,4l7 32c2,9 18,8 16,-4l-7 -32zm32 15c-10,-5 -17,9 -8,14l29 15c10,5 17,-10 7,-14l-28 -15zm72 37c-10,-5 -17,10 -7,15l29 14c9,5 17,-9 7,-14l-29 -15zm73 36c-9,-5 -17,10 -7,15l30 14c9,4 17,-10 7,-15l-30 -14zm74 34c-9,-4 -17,10 -7,15 10,5 20,9 30,13 9,5 17,-9 7,-15l-30 -13zm75 33c-11,-4 -16,10 -6,15l30 12c11,4 15,-12 6,-15l-30 -12zm75 30c-11,-3 -15,13 -6,16l31 12c11,3 15,-13 6,-16l-31 -12zm77 29c-11,-3 -16,12 -6,16l31 11c10,3 15,-12 5,-16l-30 -11zm76 27c-10,-3 -15,12 -5,16l31 10c10,3 16,-12 5,-16l-31 -10zm78 25c-10,-3 -15,12 -5,16l32 9c9,3 15,-12 4,-16l-31 -9zm78 23c-9,-3 -15,12 -4,15l32 9c9,3 15,-12 4,-16l-32 -8zm79 20c-9,-3 -16,12 -4,16l32 8c12,2 13,-15 4,-16l-32 -8zm80 19c-12,-2 -14,14 -4,16 11,2 21,4 32,6 11,2 13,-14 3,-16l-31 -6zm79 16c-11,-2 -13,14 -3,16l33 6c10,1 13,-15 2,-17l-32 -5zm81 13c-11,-1 -14,15 -3,17l33 5c10,1 13,-15 2,-17l-32 -5zm80 12c-9,-2 -13,14 -2,16l33 4c9,2 13,-14 2,-16l-33 -4zm81 9c-9,-2 -13,14 -1,16l32 3c9,2 14,-14 2,-16l-33 -3zm81 7c-12,0 -10,16 -1,16l33 2c12,0 11,-16 1,-16l-33 -2zm82 4c-12,0 -11,16 -1,16 11,1 22,1 33,1 11,0 11,-16 0,-16l-32 -1zm81 2c-11,0 -11,16 0,16 11,0 22,0 33,0 10,0 11,-16 0,-16 -11,0 -22,0 -33,0zm82 -1c-11,0 -11,16 0,16 11,0 22,0 33,-1 10,0 11,-16 -1,-16 -11,0 -22,1 -32,1zm81 -3c-10,0 -11,16 1,16 11,0 22,-1 33,-2 9,0 11,-16 -1,-16 -11,1 -22,1 -33,2zm81 -6c-12,2 -7,18 2,17 11,-1 21,-2 32,-3 12,-2 8,-18 -1,-16l-33 2zm81 -7c-11,2 -7,17 2,16l33 -4c11,-2 8,-18 -2,-16l-33 4zm81 -11c-11,2 -8,18 2,17 11,-2 22,-4 33,-5 11,-2 8,-18 -3,-16 -10,1 -21,3 -32,4zm81 -12c-11,2 -8,18 2,16 11,-2 22,-4 33,-6 10,-1 8,-18 -3,-16l-32 6zm80 -15c-10,2 -8,18 3,16 11,-2 21,-4 32,-6 10,-2 8,-18 -3,-16 -11,2 -22,4 -32,6zm79 -17c-9,2 -8,18 4,16 11,-2 21,-5 32,-7 11,-4 7,-18 -4,-16 -10,2 -21,5 -32,7zm80 -19c-12,4 -5,19 4,16l31 -8c12,-4 5,-19 -4,-16l-31 8zm78 -21c-11,4 -5,19 5,16 10,-3 21,-6 31,-9 11,-4 5,-19 -4,-16 -11,3 -21,6 -32,9zm78 -23c-10,3 -5,19 5,15l32 -10c10,-3 5,-18 -5,-15l-32 10zm78 -25c-10,3 -5,18 5,15 11,-3 21,-7 31,-11 10,-3 5,-19 -5,-15l-31 11zm77 -27c-10,3 -5,18 6,15l30 -11c10,-4 5,-19 -6,-16 -10,4 -20,8 -30,12zm76 -29c-9,3 -5,19 6,15l31 -12c9,-3 5,-19 -7,-15l-30 12zm76 -31c-10,5 -5,19 6,15 10,-4 20,-8 30,-13 11,-5 2,-19 -6,-15 -10,5 -20,9 -30,13zm75 -32c-11,5 -3,19 6,15l30 -14c10,-5 2,-19 -7,-14l-29 13zm74 -34c-10,5 -3,19 7,15l29 -14c10,-5 2,-20 -7,-15l-29 14zm73 -35c-10,4 -2,19 7,14l30 -14c9,-5 2,-20 -8,-15l-29 15zm73 -37c-9,4 -3,19 7,14l8 -3c3,4 11,4 14,-3l3 -9c3,-8 -7,-13 -13,-9l-19 10zm14 55c4,-10 -12,-16 -15,-5l-10 31c-3,10 12,16 16,5l9 -31zm-22 78c3,-9 -12,-16 -16,-4l-8 31c-3,9 12,16 16,4l8 -31zm-20 79c2,-12 -15,-13 -16,-4 -2,10 -5,23 -7,32 -2,12 14,13 16,4l7 -32zm-17 79c1,-11 -15,-13 -16,-3l-7 32c-1,11 15,14 16,3 2,-10 4,-21 7,-32zm-15 81c2,-11 -14,-14 -16,-3 -2,11 -3,22 -5,32 -2,11 14,14 16,3 2,-11 3,-22 5,-32zm-11 80c2,-10 -14,-13 -16,-2 -2,11 -3,22 -4,33 -1,9 14,13 16,1 2,-10 3,-21 4,-32zm-8 81c0,-12 -16,-10 -16,-1l-2 33c0,12 16,10 16,1l2 -33zm-4 81c0,-11 -17,-10 -17,0 0,11 0,22 0,33 0,11 16,10 16,0 0,-11 0,-22 1,-33zm-1 82c0,-11 -16,-11 -16,0 0,11 0,22 1,33 0,10 16,11 16,-1 -1,-11 -1,-22 -1,-32zm3 81c0,-10 -16,-11 -16,1 1,11 2,22 3,33 2,12 17,7 16,-2 -1,-11 -2,-21 -3,-32zm8 81c-2,-12 -18,-8 -16,2 1,10 2,21 4,32 2,11 18,8 16,-2 -2,-11 -3,-22 -4,-32zm11 80c-2,-10 -18,-8 -16,3 2,11 4,22 6,32 2,10 18,8 16,-3 -2,-10 -4,-21 -6,-32zm16 80c-2,-10 -18,-8 -16,3 2,11 5,22 7,32 4,12 19,5 16,-3 -2,-11 -5,-21 -7,-32zm19 79c-3,-11 -18,-5 -15,4 3,10 5,22 9,32 3,10 19,5 15,-5 -3,-10 -6,-21 -9,-31zm24 78c-3,-11 -19,-6 -15,5 3,10 7,21 10,31 4,10 19,5 16,-6 -4,-10 -8,-20 -11,-30zm28 76c-3,-9 -19,-5 -16,6 4,10 9,20 13,30 3,9 19,6 15,-6 -4,-10 -8,-20 -12,-30zm31 75c-4,-9 -15,-4 -16,3l-18 6c-10,3 -5,19 5,15l26 -8c6,-2 7,-7 5,-11l0 0 -2 -5zm-76 39c11,-3 5,-19 -4,-15l-32 9c-10,4 -5,19 5,16l31 -10zm-78 24c11,-4 5,-19 -5,-16l-31 9c-11,4 -5,19 5,16l31 -9zm-79 22c12,-4 5,-19 -4,-16l-31 9c-12,4 -5,19 4,16l31 -9zm-79 21c12,-3 5,-18 -4,-15l-31 8c-12,4 -5,18 4,16l31 -9zm-79 20c10,-3 7,-17 -4,-15l-32 7c-9,2 -8,18 4,16l32 -8zm-80 19c10,-2 8,-18 -3,-16l-32 7c-10,2 -8,18 3,16l32 -7zm-80 17c10,-1 8,-17 -3,-16l-32 7c-10,2 -8,18 3,16l32 -7zm-80 16c10,-1 8,-17 -3,-16l-32 6c-10,2 -8,18 3,16l32 -6zm-80 15c10,-2 8,-18 -3,-16l-32 5c-11,2 -8,18 2,17l33 -6zm-81 13c11,-1 8,-18 -3,-16 -10,2 -21,4 -32,5 -11,2 -8,18 2,16l33 -5zm-81 12c11,-2 8,-18 -2,-16l-33 4c-11,2 -7,18 2,17l33 -5zm-81 11c11,-2 7,-18 -2,-17l-33 4c-11,2 -7,18 2,16l33 -3zm-82 9c12,-2 8,-18 -1,-17l-33 3c-12,2 -7,18 2,17l32 -3zm-81 7c12,-2 7,-18 -1,-16 -11,0 -22,1 -33,2 -9,0 -11,17 1,17l33 -3zm-82 6c10,0 11,-16 -1,-16l-32 2c-10,0 -11,16 1,16l32 -2zm-82 4c10,0 11,-16 0,-16l-33 1c-10,0 -11,17 1,17l32 -2zm-81 3c10,0 11,-16 -1,-16l-32 1c-11,0 -11,16 0,16l33 -1zm-82 2c10,0 11,-17 0,-17l-33 0c-11,0 -11,17 0,17l33 0zm-82 -1c11,0 11,-16 0,-16 -11,0 -22,0 -32,0 -12,0 -11,16 -1,16 11,0 22,0 33,0zm-82 -1c12,0 11,-17 1,-17 -11,0 -22,0 -33,-1 -11,0 -11,17 -1,17 11,0 22,0 33,1zm-82 -4c12,0 11,-16 1,-16 -10,0 -22,-1 -32,-2 -12,0 -11,17 -1,17 10,0 22,1 32,1zm-81 -5c12,0 10,-16 1,-16l-33 -2c-11,0 -12,14 -1,16l33 2zm-82 -6c9,1 14,-14 2,-16l-33 -3c-9,-2 -13,14 -2,16l33 3zm-81 -8c9,1 13,-14 1,-16l-32 -4c-10,-2 -13,14 -2,16l33 4zm-82 -10c10,2 14,-14 2,-16l-32 -4c-10,-2 -13,14 -2,16l32 4zm-81 -11c11,2 14,-14 3,-16l-33 -5c-10,-2 -13,14 -2,16l32 5zm-81 -13c11,2 14,-14 3,-16l-32 -5c-11,-2 -13,14 -3,16l32 5zm-32 -5l3 -16 -3 16zm-48 -9c11,2 13,-15 3,-16l-32 -6c-11,-2 -13,14 -3,16 10,2 21,4 32,6zm-80 -16c11,2 13,-14 3,-16l-32 -7c-12,-2 -13,15 -3,16l32 7zm-80 -18c11,2 13,-14 3,-15l-32 -8c-11,-2 -13,15 -3,16l32 7zm-80 -18c9,2 16,-12 4,-16l-32 -8c-9,-3 -15,12 -4,16l32 8zm-79 -21c9,3 15,-12 4,-16l-32 -8c-9,-3 -15,12 -4,15l32 9zm-79 -22c9,3 15,-12 4,-16l-31 -9c-9,-3 -15,12 -5,16l32 9zm-79 -23c10,3 16,-12 5,-16 -10,-3 -21,-6 -31,-10 -10,-3 -15,13 -5,16 11,3 21,7 31,10zm-78 -25c11,3 16,-12 6,-16l-31 -10c-11,-3 -16,12 -6,16l31 10zm-77 -26c10,3 15,-12 5,-16l-30 -11c-11,-3 -16,13 -6,16l31 11zm-77 -28c11,4 15,-12 6,-15l-11 -4 1 -6c4,-9 -12,-15 -15,-4l-4 13c-2,4 1,8 5,9l0 0 18 7zm-6 -77c-3,9 12,16 15,5 3,-11 6,-22 9,-32 2,-9 -12,-16 -16,-4l-8 31zm19 -79c-2,12 14,14 16,4 2,-11 4,-21 6,-32 2,-12 -14,-13 -16,-3l-6 31zm16 -79c-2,10 14,13 16,2 2,-10 4,-21 5,-32 2,-10 -14,-13 -16,-2l-5 32zm12 -81c-1,10 15,14 17,2l4 -32c2,-10 -14,-13 -16,-2l-5 32zm10 -81c-1,10 15,14 17,2 1,-11 2,-22 3,-33 1,-9 -15,-13 -17,-1l-3 32zm7 -81c0,12 16,11 16,1l2 -32c0,-12 -16,-11 -16,-1l-2 32zm4 -81c0,11 16,11 16,0l1 -32c0,-11 -16,-11 -16,-1l-1 33zm1 -81c0,10 16,10 16,0 0,-11 0,-22 0,-33 0,-11 -16,-11 -16,0l0 33zm-2 -82c0,10 17,11 17,0l-2 -33c0,-10 -16,-11 -16,1l1 32zm-4 -81c0,9 17,11 17,-1l-3 -33c-2,-11 -16,-10 -16,1 1,11 2,22 2,33zm-6 -81c2,12 17,7 16,-2l-3 -33c-2,-11 -18,-7 -17,2l4 33zm-9 -81c2,11 18,7 16,-2 -1,-11 -3,-22 -4,-33 -2,-11 -18,-8 -17,2 2,11 3,22 5,33zm-12 -81c2,11 18,8 17,-2 -2,-11 -4,-22 -6,-33 -1,-10 -17,-8 -16,3 2,10 4,21 5,32zm-13 -80c2,10 18,8 16,-3l-6 -32c-2,-11 -18,-8 -16,3l6 32zm-15 -80c1,9 18,8 16,-4l-7 -32c-2,-9 -18,-8 -16,4l7 32z"/>
 </g>
</svg>
